<svg width="29" height="29" viewBox="0 0 29 29" fill="none" xmlns="http://www.w3.org/2000/svg">
<g clip-path="url(#clip0_8206_559)">
<path d="M14.5 29C22.5081 29 29 22.5081 29 14.5C29 6.49187 22.5081 0 14.5 0C6.49187 0 0 6.49187 0 14.5C0 22.5081 6.49187 29 14.5 29Z" fill="white"/>
<path d="M25.4409 12.0707C24.5841 11.2139 23.4636 10.7525 22.2773 10.7525C22.1454 10.7525 22.0136 10.7525 21.9477 10.7525C21.75 6.92978 18.5864 3.96387 14.7636 3.96387C13.1818 3.96387 11.6659 4.49114 10.4136 5.47978C9.22726 6.33659 8.37044 7.52296 7.90908 8.90705C4.87726 9.43432 2.63635 12.0707 2.63635 15.1684C2.63635 18.0025 4.94317 20.2434 7.77726 20.2434H8.50226V23.1434C8.50226 23.407 8.69999 23.5389 8.89772 23.5389H10.6773V25.5821C10.6773 25.7139 10.7432 25.9116 10.875 25.9775C10.9409 25.9775 11.0068 26.0434 11.0727 26.0434C11.1386 26.0434 11.2704 26.0434 11.3364 25.9775L14.6977 23.5389H20.4977C20.7614 23.5389 20.8932 23.3411 20.8932 23.1434V20.2434H21.6182C24.4523 20.2434 26.7591 17.9366 26.7591 15.1684C26.7591 15.1025 26.7591 15.1025 26.7591 15.0366C26.7591 13.982 26.2318 12.8616 25.4409 12.0707ZM20.0364 22.8139H14.5C14.4341 22.8139 14.3023 22.8139 14.2364 22.8798L11.4682 24.923V23.2752C11.4682 23.0116 11.2704 22.8798 11.0068 22.8798H9.29317V15.0366H20.0364V22.8139ZM21.6182 19.4525H20.8932V14.6411C20.8932 14.3775 20.6954 14.2457 20.4977 14.1798H8.89772C8.63408 14.1798 8.50226 14.3775 8.50226 14.6411V19.4525H7.77726C5.40453 19.4525 3.55908 17.5411 3.49317 15.2343C3.49317 15.2343 3.49317 15.2343 3.49317 15.1684C3.49317 12.4002 5.53635 10.0934 8.30453 9.76387C8.50226 9.76387 8.63408 9.63205 8.63408 9.43432C9.62272 6.07296 13.1159 4.09569 16.4773 5.01841C19.1795 5.80932 21.0909 8.31387 21.0909 11.148V11.2139C21.0909 11.4775 21.2886 11.6752 21.4864 11.6752H21.5523C23.5295 11.2798 25.375 12.598 25.7704 14.5752C25.8364 14.773 25.8364 15.0366 25.8364 15.2343V15.3002C25.8364 17.607 23.9909 19.4525 21.6182 19.4525Z" fill="#2D2966"/>
<path d="M12.4568 21.3641C12.5887 21.3641 12.7205 21.2982 12.7205 21.2323L12.9841 20.3755H14.4341L14.6977 21.2323C14.6977 21.3641 14.8296 21.3641 14.9614 21.3641C15.1591 21.3641 15.4887 21.2323 15.4887 21.0346V20.9687L14.2364 16.9482C14.1705 16.7505 13.9727 16.6846 13.7091 16.6846C13.5114 16.6846 13.2477 16.7505 13.1818 16.9482L11.9296 20.9687V21.0346C11.9296 21.2323 12.1932 21.3641 12.4568 21.3641ZM13.7091 17.7391L14.2364 19.7164H13.1159L13.7091 17.7391Z" fill="#2D2966"/>
<path d="M16.9387 21.3641C17.1364 21.3641 17.3341 21.2982 17.3341 21.1005V16.9482C17.3341 16.7505 17.1364 16.6846 16.9387 16.6846C16.7409 16.6846 16.5432 16.7505 16.5432 16.9482V21.1005C16.5432 21.2323 16.7409 21.3641 16.9387 21.3641Z" fill="#2D2966"/>
</g>
<defs>
<clipPath id="clip0_8206_559">
<rect width="29" height="29" fill="white"/>
</clipPath>
</defs>
</svg>
