<svg width="24" height="24" viewBox="0 0 24 24" fill="none" xmlns="http://www.w3.org/2000/svg">
<path d="M5.80062 3.8181C5.80062 3.60112 5.71634 3.39304 5.56632 3.23961C5.4163 3.08619 5.21284 3 5.00068 3C4.78853 3 4.58506 3.08619 4.43504 3.23961C4.28503 3.39304 4.20075 3.60112 4.20075 3.8181V18.2051L2.3673 16.3284C2.21709 16.1748 2.01337 16.0885 1.80094 16.0885C1.58852 16.0885 1.3848 16.1748 1.23459 16.3284C1.08439 16.482 1 16.6904 1 16.9076C1 17.1249 1.08439 17.3332 1.23459 17.4868L4.43433 20.7576L4.44553 20.769C4.59572 20.9188 4.79769 21.0018 5.00746 21C5.21722 20.9981 5.41778 20.9116 5.56544 20.7592L8.76517 17.4868C8.83955 17.4109 8.89857 17.3207 8.93886 17.2214C8.97915 17.1221 8.99993 17.0157 9 16.9082C9.00007 16.8007 8.97944 16.6942 8.93929 16.5949C8.89914 16.4956 8.84024 16.4053 8.76597 16.3292C8.6917 16.2532 8.60351 16.1928 8.50643 16.1516C8.40936 16.1104 8.30529 16.0891 8.20019 16.0891C8.09508 16.089 7.99099 16.1101 7.89385 16.1511C7.79672 16.1922 7.70844 16.2524 7.63407 16.3284L5.80062 18.2051V3.8181Z" fill="#996CFE"/>
<path d="M10.238 3.31012C10.0856 3.50869 10 3.77801 10 4.05882C10 4.33964 10.0856 4.60896 10.238 4.80752C10.3904 5.00609 10.597 5.11765 10.8125 5.11765H22.1875C22.403 5.11765 22.6097 5.00609 22.762 4.80752C22.9144 4.60896 23 4.33964 23 4.05882C23 3.77801 22.9144 3.50869 22.762 3.31012C22.6097 3.11155 22.403 3 22.1875 3H10.8125C10.597 3 10.3904 3.11155 10.238 3.31012Z" fill="#996CFE"/>
<path d="M10.2441 8.60419C10.4004 8.40562 10.6123 8.29407 10.8333 8.29407H19.1667C19.3877 8.29407 19.5996 8.40562 19.7559 8.60419C19.9122 8.80276 20 9.07207 20 9.35289C20 9.63371 19.9122 9.90302 19.7559 10.1016C19.5996 10.3002 19.3877 10.4117 19.1667 10.4117H10.8333C10.6123 10.4117 10.4004 10.3002 10.2441 10.1016C10.0878 9.90302 10 9.63371 10 9.35289C10 9.07207 10.0878 8.80276 10.2441 8.60419Z" fill="#996CFE"/>
<path d="M10.2563 13.8984C10.4204 13.6998 10.6429 13.5883 10.875 13.5883H16.125C16.3571 13.5883 16.5796 13.6998 16.7437 13.8984C16.9078 14.0969 17 14.3663 17 14.6471C17 14.9279 16.9078 15.1972 16.7437 15.3958C16.5796 15.5943 16.3571 15.7059 16.125 15.7059H10.875C10.6429 15.7059 10.4204 15.5943 10.2563 15.3958C10.0922 15.1972 10 14.9279 10 14.6471C10 14.3663 10.0922 14.0969 10.2563 13.8984Z" fill="#996CFE"/>
<path d="M10.2929 19.1924C10.4804 18.9939 10.7348 18.8823 11 18.8823H13C13.2652 18.8823 13.5196 18.9939 13.7071 19.1924C13.8946 19.391 14 19.6603 14 19.9411C14 20.222 13.8946 20.4913 13.7071 20.6898C13.5196 20.8884 13.2652 21 13 21H11C10.7348 21 10.4804 20.8884 10.2929 20.6898C10.1054 20.4913 10 20.222 10 19.9411C10 19.6603 10.1054 19.391 10.2929 19.1924Z" fill="#996CFE"/>
</svg>
