<svg width="20" height="20" viewBox="0 0 20 20" fill="none" xmlns="http://www.w3.org/2000/svg">
<mask id="mask0_5354_705" style="mask-type:alpha" maskUnits="userSpaceOnUse" x="0" y="0" width="20" height="20">
<rect width="20" height="20" fill="#D9D9D9"/>
</mask>
<g mask="url(#mask0_5354_705)">
<path d="M4.55556 18C4.12778 18 3.76157 17.8433 3.45694 17.53C3.15231 17.2167 3 16.84 3 16.4V5.2C3 4.76 3.15231 4.38333 3.45694 4.07C3.76157 3.75667 4.12778 3.6 4.55556 3.6H5.33333V2H6.88889V3.6H13.1111V2H14.6667V3.6H15.4444C15.8722 3.6 16.2384 3.75667 16.5431 4.07C16.8477 4.38333 17 4.76 17 5.2V16.4C17 16.84 16.8477 17.2167 16.5431 17.53C16.2384 17.8433 15.8722 18 15.4444 18H4.55556ZM4.55556 16.4H15.4444V8.4H4.55556V16.4ZM4.55556 6.8H15.4444V5.2H4.55556V6.8ZM10 11.6C9.77963 11.6 9.59491 11.5233 9.44583 11.37C9.29676 11.2167 9.22222 11.0267 9.22222 10.8C9.22222 10.5733 9.29676 10.3833 9.44583 10.23C9.59491 10.0767 9.77963 10 10 10C10.2204 10 10.4051 10.0767 10.5542 10.23C10.7032 10.3833 10.7778 10.5733 10.7778 10.8C10.7778 11.0267 10.7032 11.2167 10.5542 11.37C10.4051 11.5233 10.2204 11.6 10 11.6ZM6.88889 11.6C6.66852 11.6 6.4838 11.5233 6.33472 11.37C6.18565 11.2167 6.11111 11.0267 6.11111 10.8C6.11111 10.5733 6.18565 10.3833 6.33472 10.23C6.4838 10.0767 6.66852 10 6.88889 10C7.10926 10 7.29398 10.0767 7.44306 10.23C7.59213 10.3833 7.66667 10.5733 7.66667 10.8C7.66667 11.0267 7.59213 11.2167 7.44306 11.37C7.29398 11.5233 7.10926 11.6 6.88889 11.6ZM13.1111 11.6C12.8907 11.6 12.706 11.5233 12.5569 11.37C12.4079 11.2167 12.3333 11.0267 12.3333 10.8C12.3333 10.5733 12.4079 10.3833 12.5569 10.23C12.706 10.0767 12.8907 10 13.1111 10C13.3315 10 13.5162 10.0767 13.6653 10.23C13.8144 10.3833 13.8889 10.5733 13.8889 10.8C13.8889 11.0267 13.8144 11.2167 13.6653 11.37C13.5162 11.5233 13.3315 11.6 13.1111 11.6ZM10 14.8C9.77963 14.8 9.59491 14.7233 9.44583 14.57C9.29676 14.4167 9.22222 14.2267 9.22222 14C9.22222 13.7733 9.29676 13.5833 9.44583 13.43C9.59491 13.2767 9.77963 13.2 10 13.2C10.2204 13.2 10.4051 13.2767 10.5542 13.43C10.7032 13.5833 10.7778 13.7733 10.7778 14C10.7778 14.2267 10.7032 14.4167 10.5542 14.57C10.4051 14.7233 10.2204 14.8 10 14.8ZM6.88889 14.8C6.66852 14.8 6.4838 14.7233 6.33472 14.57C6.18565 14.4167 6.11111 14.2267 6.11111 14C6.11111 13.7733 6.18565 13.5833 6.33472 13.43C6.4838 13.2767 6.66852 13.2 6.88889 13.2C7.10926 13.2 7.29398 13.2767 7.44306 13.43C7.59213 13.5833 7.66667 13.7733 7.66667 14C7.66667 14.2267 7.59213 14.4167 7.44306 14.57C7.29398 14.7233 7.10926 14.8 6.88889 14.8ZM13.1111 14.8C12.8907 14.8 12.706 14.7233 12.5569 14.57C12.4079 14.4167 12.3333 14.2267 12.3333 14C12.3333 13.7733 12.4079 13.5833 12.5569 13.43C12.706 13.2767 12.8907 13.2 13.1111 13.2C13.3315 13.2 13.5162 13.2767 13.6653 13.43C13.8144 13.5833 13.8889 13.7733 13.8889 14C13.8889 14.2267 13.8144 14.4167 13.6653 14.57C13.5162 14.7233 13.3315 14.8 13.1111 14.8Z" fill="#996CFE"/>
</g>
</svg>
