<svg xmlns="http://www.w3.org/2000/svg" width="40" height="40" viewBox="0 0 40 40" fill="none">
  <path d="M20 6.66634V3.33301H36.6666V6.66634H20ZM20 13.333V9.99967H36.6666V13.333H20ZM20 19.9997V16.6663H36.6666V19.9997H20ZM31.5833 36.6663C28.1111 36.6663 24.6805 35.9097 21.2916 34.3963C17.9028 32.883 14.8194 30.7369 12.0416 27.958C9.26387 25.1802 7.11831 22.0969 5.60498 18.708C4.09165 15.3191 3.33442 11.8886 3.33331 8.41634C3.33331 7.91634 3.49998 7.49967 3.83331 7.16634C4.16665 6.83301 4.58331 6.66634 5.08331 6.66634H11.8333C12.2222 6.66634 12.5694 6.79856 12.875 7.06301C13.1805 7.32745 13.3611 7.63967 13.4166 7.99967L14.5 13.833C14.5555 14.2775 14.5416 14.6525 14.4583 14.958C14.375 15.2636 14.2222 15.5275 14 15.7497L9.95831 19.833C10.5139 20.8608 11.1733 21.8541 11.9366 22.813C12.7 23.7719 13.5405 24.6952 14.4583 25.583C15.3194 26.4441 16.2222 27.243 17.1666 27.9797C18.1111 28.7163 19.1111 29.3897 20.1666 29.9997L24.0833 26.083C24.3333 25.833 24.66 25.6458 25.0633 25.5213C25.4666 25.3969 25.8622 25.3619 26.25 25.4163L32 26.583C32.3889 26.6941 32.7083 26.8958 32.9583 27.188C33.2083 27.4802 33.3333 27.8063 33.3333 28.1663V34.9163C33.3333 35.4163 33.1666 35.833 32.8333 36.1663C32.5 36.4997 32.0833 36.6663 31.5833 36.6663Z" fill="#996CFE"/>
</svg>