<svg width="36" height="36" viewBox="0 0 36 36" fill="none" xmlns="http://www.w3.org/2000/svg">
<mask id="mask0_7420_2128" style="mask-type:alpha" maskUnits="userSpaceOnUse" x="0" y="0" width="36" height="36">
<rect width="36" height="36" fill="#D9D9D9"/>
</mask>
<g mask="url(#mask0_7420_2128)">
<path d="M15.48 21.24L11.61 17.37C11.28 17.04 10.86 16.875 10.35 16.875C9.84 16.875 9.42 17.04 9.09 17.37C8.76 17.7 8.595 18.12 8.595 18.63C8.595 19.14 8.76 19.56 9.09 19.89L14.22 25.02C14.58 25.38 15 25.56 15.48 25.56C15.96 25.56 16.38 25.38 16.74 25.02L26.91 14.85C27.24 14.52 27.405 14.1 27.405 13.59C27.405 13.08 27.24 12.66 26.91 12.33C26.58 12 26.16 11.835 25.65 11.835C25.14 11.835 24.72 12 24.39 12.33L15.48 21.24ZM18 36C15.51 36 13.17 35.5275 10.98 34.5825C8.79 33.6375 6.885 32.355 5.265 30.735C3.645 29.115 2.3625 27.21 1.4175 25.02C0.4725 22.83 0 20.49 0 18C0 15.51 0.4725 13.17 1.4175 10.98C2.3625 8.79 3.645 6.885 5.265 5.265C6.885 3.645 8.79 2.3625 10.98 1.4175C13.17 0.4725 15.51 0 18 0C20.49 0 22.83 0.4725 25.02 1.4175C27.21 2.3625 29.115 3.645 30.735 5.265C32.355 6.885 33.6375 8.79 34.5825 10.98C35.5275 13.17 36 15.51 36 18C36 20.49 35.5275 22.83 34.5825 25.02C33.6375 27.21 32.355 29.115 30.735 30.735C29.115 32.355 27.21 33.6375 25.02 34.5825C22.83 35.5275 20.49 36 18 36Z" fill="#996CFE"/>
</g>
</svg>
