<svg xmlns="http://www.w3.org/2000/svg" width="14" height="16" viewBox="0 0 14 16" fill="none">
  <path d="M2.64331 15.1709C2.18498 15.1709 1.79262 15.0077 1.46623 14.6813C1.13984 14.3549 0.976644 13.9626 0.976644 13.5042V2.6709C0.740533 2.6709 0.542616 2.59104 0.382894 2.43132C0.223172 2.27159 0.143311 2.07368 0.143311 1.83757C0.143311 1.60145 0.223172 1.40354 0.382894 1.24382C0.542616 1.08409 0.740533 1.00423 0.976644 1.00423H4.30998C4.30998 0.768121 4.38984 0.570204 4.54956 0.410482C4.70928 0.25076 4.9072 0.170898 5.14331 0.170898H8.47664C8.71276 0.170898 8.91067 0.25076 9.07039 0.410482C9.23012 0.570204 9.30998 0.768121 9.30998 1.00423H12.6433C12.8794 1.00423 13.0773 1.08409 13.2371 1.24382C13.3968 1.40354 13.4766 1.60145 13.4766 1.83757C13.4766 2.07368 13.3968 2.27159 13.2371 2.43132C13.0773 2.59104 12.8794 2.6709 12.6433 2.6709V13.5042C12.6433 13.9626 12.4801 14.3549 12.1537 14.6813C11.8273 15.0077 11.435 15.1709 10.9766 15.1709H2.64331ZM10.9766 2.6709H2.64331V13.5042H10.9766V2.6709ZM5.14331 11.8376C5.37942 11.8376 5.57734 11.7577 5.73706 11.598C5.89678 11.4383 5.97664 11.2403 5.97664 11.0042V5.1709C5.97664 4.93479 5.89678 4.73687 5.73706 4.57715C5.57734 4.41743 5.37942 4.33756 5.14331 4.33756C4.9072 4.33756 4.70928 4.41743 4.54956 4.57715C4.38984 4.73687 4.30998 4.93479 4.30998 5.1709V11.0042C4.30998 11.2403 4.38984 11.4383 4.54956 11.598C4.70928 11.7577 4.9072 11.8376 5.14331 11.8376ZM8.47664 11.8376C8.71276 11.8376 8.91067 11.7577 9.07039 11.598C9.23012 11.4383 9.30998 11.2403 9.30998 11.0042V5.1709C9.30998 4.93479 9.23012 4.73687 9.07039 4.57715C8.91067 4.41743 8.71276 4.33756 8.47664 4.33756C8.24053 4.33756 8.04262 4.41743 7.88289 4.57715C7.72317 4.73687 7.64331 4.93479 7.64331 5.1709V11.0042C7.64331 11.2403 7.72317 11.4383 7.88289 11.598C8.04262 11.7577 8.24053 11.8376 8.47664 11.8376Z" fill="black" fill-opacity="0.65"/>
</svg>