<svg width="70" height="70" viewBox="0 0 70 70" fill="none" xmlns="http://www.w3.org/2000/svg">
<path d="M33.2221 3.45093C33.9667 2.00557 36.0333 2.00557 36.7779 3.45092L42.2611 14.0938C42.7086 14.9623 43.718 15.3804 44.6485 15.0827L56.0514 11.4343C57.6 10.9388 59.0612 12.4 58.5657 13.9486L54.9173 25.3515C54.6196 26.282 55.0377 27.2914 55.9062 27.7389L66.5491 33.2221C67.9944 33.9667 67.9944 36.0333 66.5491 36.7779L55.9062 42.2611C55.0377 42.7086 54.6196 43.718 54.9173 44.6485L58.5657 56.0514C59.0612 57.6 57.6 59.0612 56.0514 58.5657L44.6485 54.9173C43.718 54.6196 42.7086 55.0377 42.2611 55.9062L36.7779 66.5491C36.0333 67.9944 33.9667 67.9944 33.2221 66.5491L27.7389 55.9062C27.2914 55.0377 26.282 54.6196 25.3515 54.9173L13.9486 58.5657C12.4 59.0612 10.9388 57.6 11.4343 56.0514L15.0827 44.6485C15.3804 43.718 14.9623 42.7086 14.0938 42.2611L3.45093 36.7779C2.00557 36.0333 2.00557 33.9667 3.45092 33.2221L14.0938 27.7389C14.9623 27.2914 15.3804 26.282 15.0827 25.3515L11.4343 13.9486C10.9388 12.4 12.4 10.9388 13.9486 11.4343L25.3515 15.0827C26.282 15.3804 27.2914 14.9623 27.7389 14.0938L33.2221 3.45093Z" fill="#FFF"/>
<path d="M25.4753 26.798C26.138 26.798 26.7167 26.9147 27.2113 27.148C27.706 27.3813 28.0887 27.7173 28.3593 28.156C28.6393 28.5947 28.7793 29.1313 28.7793 29.766C28.7793 30.466 28.63 31.068 28.3313 31.572C28.0327 32.076 27.5987 32.4633 27.0293 32.734C26.4693 33.0047 25.7833 33.14 24.9713 33.14C24.458 33.14 23.9727 33.0933 23.5153 33C23.058 32.9067 22.6707 32.7713 22.3533 32.594V31.236C22.6893 31.432 23.0953 31.5907 23.5713 31.712C24.0567 31.8333 24.5187 31.894 24.9573 31.894C25.4333 31.894 25.8393 31.824 26.1753 31.684C26.5207 31.5347 26.7867 31.3153 26.9733 31.026C27.1693 30.7273 27.2673 30.354 27.2673 29.906C27.2673 29.2993 27.076 28.8373 26.6933 28.52C26.32 28.1933 25.7273 28.03 24.9153 28.03C24.654 28.03 24.36 28.0533 24.0333 28.1C23.716 28.1467 23.4593 28.1933 23.2633 28.24L22.5773 27.834L22.9553 23.004H28.0933V24.32H24.2433L24.0193 26.938C24.178 26.91 24.3787 26.882 24.6213 26.854C24.864 26.8167 25.1487 26.798 25.4753 26.798ZM36.9171 27.988C36.9171 28.8 36.8517 29.5233 36.7211 30.158C36.5997 30.7927 36.4037 31.334 36.1331 31.782C35.8717 32.2207 35.5217 32.5567 35.0831 32.79C34.6537 33.0233 34.1357 33.14 33.5291 33.14C32.7637 33.14 32.1337 32.9347 31.6391 32.524C31.1444 32.1133 30.7757 31.5253 30.5331 30.76C30.2904 29.9853 30.1691 29.0613 30.1691 27.988C30.1691 26.9053 30.2764 25.9813 30.4911 25.216C30.7151 24.4507 31.0744 23.8673 31.5691 23.466C32.0637 23.0553 32.7171 22.85 33.5291 22.85C34.2944 22.85 34.9244 23.0553 35.4191 23.466C35.9231 23.8673 36.2964 24.4507 36.5391 25.216C36.7911 25.9813 36.9171 26.9053 36.9171 27.988ZM31.6531 27.988C31.6531 28.856 31.7137 29.5793 31.8351 30.158C31.9564 30.7367 32.1524 31.1707 32.4231 31.46C32.7031 31.7493 33.0717 31.894 33.5291 31.894C33.9864 31.894 34.3504 31.754 34.6211 31.474C34.9011 31.1847 35.1017 30.7507 35.2231 30.172C35.3537 29.584 35.4191 28.856 35.4191 27.988C35.4191 27.12 35.3537 26.4013 35.2231 25.832C35.1017 25.2533 34.9011 24.8193 34.6211 24.53C34.3504 24.2407 33.9864 24.096 33.5291 24.096C33.0717 24.096 32.7031 24.2407 32.4231 24.53C32.1524 24.8193 31.9564 25.2533 31.8351 25.832C31.7137 26.4013 31.6531 27.12 31.6531 27.988ZM40.2948 22.864C41.0134 22.864 41.5548 23.1393 41.9188 23.69C42.2921 24.2313 42.4788 24.9967 42.4788 25.986C42.4788 26.9753 42.3014 27.75 41.9468 28.31C41.6014 28.8607 41.0508 29.136 40.2948 29.136C39.8374 29.136 39.4454 29.01 39.1188 28.758C38.8014 28.506 38.5634 28.1467 38.4048 27.68C38.2461 27.204 38.1668 26.6393 38.1668 25.986C38.1668 24.9967 38.3348 24.2313 38.6708 23.69C39.0161 23.1393 39.5574 22.864 40.2948 22.864ZM40.2948 23.9C39.9868 23.9 39.7581 24.0773 39.6088 24.432C39.4594 24.7773 39.3848 25.2953 39.3848 25.986C39.3848 26.686 39.4594 27.2133 39.6088 27.568C39.7581 27.9227 39.9868 28.1 40.2948 28.1C40.6214 28.1 40.8641 27.9273 41.0228 27.582C41.1814 27.2273 41.2608 26.6953 41.2608 25.986C41.2608 25.2953 41.1814 24.7773 41.0228 24.432C40.8641 24.0773 40.6214 23.9 40.2948 23.9ZM46.9028 23.004L41.3588 33H40.1128L45.6568 23.004H46.9028ZM46.6788 26.868C47.1548 26.868 47.5514 26.994 47.8688 27.246C48.1954 27.4887 48.4428 27.8433 48.6108 28.31C48.7788 28.7673 48.8628 29.3273 48.8628 29.99C48.8628 30.9793 48.6854 31.754 48.3308 32.314C47.9761 32.8647 47.4254 33.14 46.6788 33.14C46.2121 33.14 45.8201 33.014 45.5028 32.762C45.1854 32.51 44.9428 32.1507 44.7748 31.684C44.6161 31.208 44.5368 30.6433 44.5368 29.99C44.5368 29.0007 44.7048 28.2353 45.0408 27.694C45.3861 27.1433 45.9321 26.868 46.6788 26.868ZM46.6788 27.904C46.3614 27.904 46.1281 28.0767 45.9788 28.422C45.8388 28.7673 45.7688 29.29 45.7688 29.99C45.7688 30.69 45.8388 31.2173 45.9788 31.572C46.1281 31.9173 46.3614 32.09 46.6788 32.09C47.0054 32.09 47.2434 31.9173 47.3928 31.572C47.5514 31.2267 47.6308 30.6993 47.6308 29.99C47.6308 29.29 47.5514 28.7673 47.3928 28.422C47.2434 28.0767 47.0054 27.904 46.6788 27.904ZM34.0425 43.22C34.0425 43.8453 33.9585 44.4007 33.7905 44.886C33.6225 45.3713 33.3845 45.782 33.0765 46.118C32.7685 46.454 32.3951 46.7107 31.9565 46.888C31.5178 47.056 31.0231 47.14 30.4725 47.14C29.9685 47.14 29.5018 47.056 29.0725 46.888C28.6431 46.7107 28.2698 46.454 27.9525 46.118C27.6445 45.782 27.4018 45.3713 27.2245 44.886C27.0471 44.4007 26.9585 43.8407 26.9585 43.206C26.9585 42.3753 27.0985 41.6707 27.3785 41.092C27.6678 40.5133 28.0785 40.0747 28.6105 39.776C29.1518 39.468 29.7865 39.314 30.5145 39.314C31.2051 39.314 31.8118 39.468 32.3345 39.776C32.8665 40.0747 33.2818 40.5133 33.5805 41.092C33.8885 41.6707 34.0425 42.38 34.0425 43.22ZM28.4845 43.22C28.4845 43.78 28.5545 44.2653 28.6945 44.676C28.8345 45.0773 29.0538 45.3853 29.3525 45.6C29.6511 45.8147 30.0338 45.922 30.5005 45.922C30.9671 45.922 31.3498 45.8147 31.6485 45.6C31.9471 45.3853 32.1665 45.0773 32.3065 44.676C32.4465 44.2653 32.5165 43.78 32.5165 43.22C32.5165 42.6413 32.4418 42.156 32.2925 41.764C32.1525 41.372 31.9331 41.0733 31.6345 40.868C31.3451 40.6533 30.9625 40.546 30.4865 40.546C29.7865 40.546 29.2778 40.7793 28.9605 41.246C28.6431 41.7127 28.4845 42.3707 28.4845 43.22ZM39.6057 40.588H37.7437V47H36.2597V40.588H34.9857V39.888L36.2597 39.426V38.95C36.2597 38.306 36.3577 37.7927 36.5537 37.41C36.7591 37.018 37.0484 36.7333 37.4217 36.556C37.7951 36.3787 38.2477 36.29 38.7797 36.29C39.1064 36.29 39.4051 36.318 39.6757 36.374C39.9464 36.43 40.1751 36.4907 40.3617 36.556L39.9837 37.69C39.8344 37.6433 39.6617 37.6013 39.4657 37.564C39.2697 37.5173 39.0644 37.494 38.8497 37.494C38.4764 37.494 38.1964 37.6153 38.0097 37.858C37.8324 38.1007 37.7437 38.4693 37.7437 38.964V39.454H39.6057V40.588ZM44.6096 40.588H42.7476V47H41.2636V40.588H39.9896V39.888L41.2636 39.426V38.95C41.2636 38.306 41.3616 37.7927 41.5576 37.41C41.763 37.018 42.0523 36.7333 42.4256 36.556C42.799 36.3787 43.2516 36.29 43.7836 36.29C44.1103 36.29 44.409 36.318 44.6796 36.374C44.9503 36.43 45.179 36.4907 45.3656 36.556L44.9876 37.69C44.8383 37.6433 44.6656 37.6013 44.4696 37.564C44.2736 37.5173 44.0683 37.494 43.8536 37.494C43.4803 37.494 43.2003 37.6153 43.0136 37.858C42.8363 38.1007 42.7476 38.4693 42.7476 38.964V39.454H44.6096V40.588Z" fill="var(--Brand-Purple, #996CFE)"/>
</svg>
