<svg width="21" height="5" viewBox="0 0 21 5" fill="none" xmlns="http://www.w3.org/2000/svg">
<path d="M0.9375 2.39062C0.9375 1.84375 1.13021 1.3776 1.51562 0.992188C1.90625 0.606771 2.3724 0.414062 2.91406 0.414062C3.46094 0.414062 3.92708 0.606771 4.3125 0.992188C4.70312 1.3776 4.89844 1.84375 4.89844 2.39062C4.89844 2.9375 4.70312 3.40625 4.3125 3.79688C3.92708 4.18229 3.46094 4.375 2.91406 4.375C2.3724 4.375 1.90625 4.18229 1.51562 3.79688C1.13021 3.40625 0.9375 2.9375 0.9375 2.39062ZM8.54688 2.39062C8.54688 1.84375 8.73958 1.3776 9.125 0.992188C9.51562 0.606771 9.98177 0.414062 10.5234 0.414062C11.0703 0.414062 11.5365 0.606771 11.9219 0.992188C12.3125 1.3776 12.5078 1.84375 12.5078 2.39062C12.5078 2.9375 12.3125 3.40625 11.9219 3.79688C11.5365 4.18229 11.0703 4.375 10.5234 4.375C9.98177 4.375 9.51562 4.18229 9.125 3.79688C8.73958 3.40625 8.54688 2.9375 8.54688 2.39062ZM16.1562 2.39062C16.1562 1.84375 16.349 1.3776 16.7344 0.992188C17.125 0.606771 17.5911 0.414062 18.1328 0.414062C18.6797 0.414062 19.1458 0.606771 19.5312 0.992188C19.9219 1.3776 20.1172 1.84375 20.1172 2.39062C20.1172 2.9375 19.9219 3.40625 19.5312 3.79688C19.1458 4.18229 18.6797 4.375 18.1328 4.375C17.5911 4.375 17.125 4.18229 16.7344 3.79688C16.349 3.40625 16.1562 2.9375 16.1562 2.39062Z" fill="#C6CBD9"/>
</svg>
