<svg width="24" height="24" viewBox="0 0 24 24" fill="none" xmlns="http://www.w3.org/2000/svg">
<rect width="24" height="24" rx="12" fill="#996CFE"/>
<path d="M12.694 6.0401C12.7845 6.07823 12.8619 6.14219 12.9163 6.224C12.9707 6.30581 12.9998 6.40184 13 6.5001V17.5001C13 17.5985 12.9709 17.6948 12.9164 17.7768C12.8619 17.8588 12.7844 17.9229 12.6936 17.961C12.6028 17.9991 12.5028 18.0096 12.4061 17.9911C12.3094 17.9726 12.2203 17.926 12.15 17.8571L9.22299 14.9821H7.5C7.10217 14.9821 6.72064 14.824 6.43934 14.5427C6.15803 14.2614 6 13.8799 6 13.4821V10.4921C6 10.0943 6.15803 9.71274 6.43934 9.43143C6.72064 9.15013 7.10217 8.9921 7.5 8.9921H9.22399L12.151 6.1421C12.2213 6.07346 12.3104 6.02708 12.407 6.00876C12.5035 5.99044 12.6034 6.00199 12.694 6.0401ZM12 7.6841L9.77699 9.85109C9.68338 9.94237 9.55774 9.99334 9.42699 9.99309H7.5C7.36739 9.99309 7.24021 10.0458 7.14644 10.1395C7.05268 10.2333 7 10.3605 7 10.4931V13.4821C7 13.6147 7.05268 13.7419 7.14644 13.8356C7.24021 13.9294 7.36739 13.9821 7.5 13.9821H9.42799C9.55888 13.9821 9.68454 14.0334 9.77799 14.1251L12 16.3081V7.6841ZM14.111 9.1881C14.1519 9.13665 14.2025 9.09377 14.2599 9.0619C14.3174 9.03003 14.3806 9.0098 14.4459 9.00237C14.5112 8.99494 14.5773 9.00046 14.6405 9.0186C14.7036 9.03674 14.7626 9.06715 14.814 9.1081L14.816 9.1091L14.818 9.1111L14.823 9.1151L14.838 9.1281L14.884 9.1681C14.9206 9.20143 14.968 9.24876 15.026 9.3101C15.139 9.43309 15.286 9.61209 15.431 9.85009C15.722 10.3301 16.004 11.0431 16.004 11.9981C16.004 12.9521 15.722 13.6661 15.431 14.1461C15.3143 14.3394 15.1786 14.5206 15.026 14.6871C14.9617 14.7555 14.8943 14.8209 14.824 14.8831L14.816 14.8901H14.815C14.815 14.8901 14.368 15.1331 14.112 14.8121C14.0297 14.7091 13.9914 14.5777 14.0054 14.4466C14.0194 14.3155 14.0847 14.1953 14.187 14.1121L14.189 14.1101L14.207 14.0941C14.2256 14.0774 14.254 14.0491 14.292 14.0091C14.3991 13.8915 14.4942 13.7635 14.576 13.6271C14.786 13.2821 15.004 12.7451 15.004 11.9971C15.004 11.2491 14.786 10.7141 14.576 10.3701C14.473 10.2005 14.3494 10.0443 14.208 9.90509L14.19 9.88909C14.0868 9.80643 14.0206 9.68627 14.0058 9.5549C13.991 9.42353 14.0288 9.29165 14.111 9.1881ZM15.813 7.1081C15.7618 7.06574 15.7027 7.034 15.6391 7.01475C15.5755 6.9955 15.5087 6.98911 15.4426 6.99597C15.3765 7.00282 15.3124 7.02278 15.2542 7.05468C15.1959 7.08658 15.1445 7.12977 15.1031 7.18174C15.0617 7.23371 15.0311 7.29341 15.013 7.35735C14.995 7.42129 14.9898 7.4882 14.9979 7.55415C15.006 7.6201 15.0271 7.68377 15.0601 7.74146C15.0931 7.79914 15.1372 7.84967 15.19 7.8901L15.201 7.9001L15.253 7.9451C15.301 7.9871 15.368 8.0521 15.454 8.1401C15.624 8.3171 15.854 8.5831 16.084 8.9341C16.544 9.63509 17.004 10.6671 17.004 12.0031C17.0079 13.0934 16.6876 14.1602 16.084 15.0681C15.854 15.4181 15.624 15.6821 15.454 15.8581C15.3735 15.9417 15.2894 16.0218 15.202 16.0981L15.191 16.1081H15.19C15.0891 16.1916 15.0249 16.3114 15.0114 16.4417C14.9979 16.572 15.0361 16.7024 15.1177 16.8048C15.1993 16.9073 15.3179 16.9736 15.4479 16.9896C15.5779 17.0055 15.709 16.9698 15.813 16.8901L15.846 16.8631L15.921 16.7981C15.984 16.7411 16.071 16.6601 16.174 16.5531C16.4513 16.2651 16.7011 15.9517 16.92 15.6171C17.6303 14.546 18.0072 13.2883 18.003 12.0031C18.0056 10.7168 17.6289 9.45835 16.92 8.3851C16.701 8.05017 16.4516 7.73617 16.175 7.4471C16.0704 7.33854 15.9609 7.23477 15.847 7.1361L15.824 7.1171L15.817 7.1111L15.815 7.1091L15.813 7.1081Z" fill="white"/>
</svg>
