<svg width="24" height="24" viewBox="0 0 24 24" fill="none" xmlns="http://www.w3.org/2000/svg">
<path d="M13.041 3.06016C13.1768 3.11734 13.2928 3.21329 13.3745 3.336C13.4561 3.45872 13.4998 3.60277 13.5 3.75016V20.2502C13.5 20.3978 13.4564 20.5422 13.3746 20.6652C13.2928 20.7882 13.1766 20.8843 13.0404 20.9415C12.9043 20.9987 12.7542 21.0144 12.6092 20.9867C12.4641 20.959 12.3305 20.889 12.225 20.7857L7.8345 16.4732H5.25C4.65326 16.4732 4.08097 16.2361 3.65901 15.8141C3.23705 15.3922 3 14.8199 3 14.2232V9.73816C3 9.14142 3.23705 8.56912 3.65901 8.14717C4.08097 7.72521 4.65326 7.48816 5.25 7.48816H7.836L12.2265 3.21316C12.332 3.11019 12.4656 3.04062 12.6105 3.01314C12.7553 2.98566 12.9051 3.00299 13.041 3.06016ZM12 5.52616L8.6655 8.77666C8.52508 8.91357 8.33662 8.99003 8.1405 8.98966H5.25C5.05109 8.98966 4.86032 9.06867 4.71967 9.20933C4.57902 9.34998 4.5 9.54074 4.5 9.73966V14.2232C4.5 14.4221 4.57902 14.6128 4.71967 14.7535C4.86032 14.8941 5.05109 14.9732 5.25 14.9732H8.142C8.33833 14.9732 8.52682 15.0502 8.667 15.1877L12 18.4622V5.52616ZM15.1665 7.78216C15.2278 7.70499 15.3038 7.64066 15.39 7.59286C15.4762 7.54506 15.5709 7.51472 15.6689 7.50357C15.7668 7.49243 15.866 7.5007 15.9607 7.52791C16.0555 7.55512 16.1439 7.60074 16.221 7.66216L16.224 7.66366L16.227 7.66666L16.2345 7.67266L16.257 7.69216L16.326 7.75216C16.381 7.80216 16.452 7.87316 16.539 7.96516C16.7085 8.14966 16.929 8.41816 17.1465 8.77516C17.583 9.49516 18.006 10.5647 18.006 11.9972C18.006 13.4282 17.583 14.4992 17.1465 15.2192C16.9715 15.5092 16.7679 15.781 16.539 16.0307C16.4427 16.1333 16.3415 16.2315 16.236 16.3247L16.224 16.3352H16.2225C16.2225 16.3352 15.552 16.6997 15.168 16.2182C15.0445 16.0637 14.9871 15.8667 15.0081 15.67C15.0292 15.4734 15.1271 15.293 15.2805 15.1682L15.2835 15.1652L15.3105 15.1412C15.3385 15.1162 15.381 15.0737 15.438 15.0137C15.5986 14.8372 15.7413 14.6453 15.864 14.4407C16.179 13.9232 16.506 13.1177 16.506 11.9957C16.506 10.8737 16.179 10.0712 15.864 9.55516C15.7095 9.30073 15.5241 9.06644 15.312 8.85766L15.285 8.83366C15.1303 8.70966 15.0309 8.52942 15.0087 8.33237C14.9865 8.13531 15.0432 7.93749 15.1665 7.78216ZM17.7195 4.66216C17.6427 4.59861 17.554 4.55101 17.4586 4.52213C17.3633 4.49325 17.2631 4.48367 17.1639 4.49396C17.0648 4.50424 16.9687 4.53418 16.8813 4.58203C16.7938 4.62987 16.7168 4.69467 16.6547 4.77262C16.5926 4.85057 16.5467 4.94012 16.5196 5.03604C16.4925 5.13195 16.4848 5.2323 16.4969 5.33123C16.509 5.43015 16.5408 5.52567 16.5902 5.61219C16.6397 5.69872 16.7059 5.77452 16.785 5.83516L16.8015 5.85016L16.8795 5.91766C16.9515 5.98066 17.052 6.07816 17.181 6.21016C17.436 6.47566 17.781 6.87466 18.126 7.40116C18.816 8.45266 19.506 10.0007 19.506 12.0047C19.5119 13.6401 19.0315 15.2403 18.126 16.6022C17.781 17.1272 17.436 17.5232 17.181 17.7872C17.0603 17.9126 16.9342 18.0327 16.803 18.1472L16.7865 18.1622H16.785C16.6336 18.2874 16.5375 18.4671 16.5172 18.6626C16.4969 18.858 16.5541 19.0536 16.6766 19.2073C16.799 19.361 16.9769 19.4605 17.1719 19.4844C17.3669 19.5083 17.5636 19.4547 17.7195 19.3352L17.769 19.2947L17.8815 19.1972C17.976 19.1117 18.1065 18.9902 18.261 18.8297C18.677 18.3976 19.0517 17.9276 19.38 17.4257C20.4455 15.819 21.0109 13.9325 21.0045 12.0047C21.0085 10.0753 20.4434 8.18755 19.38 6.57766C19.0516 6.07526 18.6775 5.60426 18.2625 5.17066C18.1056 5.00782 17.9414 4.85216 17.7705 4.70416L17.736 4.67566L17.7255 4.66666L17.7225 4.66366L17.7195 4.66216Z" fill="#996CFE"/>
</svg>
