<svg width="84" height="84" viewBox="0 0 84 84" fill="none" xmlns="http://www.w3.org/2000/svg">
<g clip-path="url(#clip0_5624_8157)">
<rect width="84" height="84" rx="12" fill="#868EAF"/>
<path d="M31.1901 54H28.1301V42.678H15.6861V54H12.6261V29.724H15.6861V39.992H28.1301V29.724H31.1901V54ZM48.2313 32.07C46.9393 32.07 45.772 32.2967 44.7293 32.75C43.6866 33.1807 42.8026 33.8267 42.0773 34.688C41.352 35.5267 40.7966 36.558 40.4113 37.782C40.026 38.9833 39.8333 40.3433 39.8333 41.862C39.8333 43.8567 40.1393 45.5907 40.7513 47.064C41.386 48.5373 42.3153 49.6707 43.5393 50.464C44.786 51.2573 46.3386 51.654 48.1973 51.654C49.2626 51.654 50.2713 51.5633 51.2233 51.382C52.1753 51.2007 53.1046 50.974 54.0113 50.702V53.354C53.1046 53.694 52.164 53.9433 51.1893 54.102C50.2373 54.2607 49.0926 54.34 47.7553 54.34C45.2846 54.34 43.222 53.83 41.5673 52.81C39.9126 51.79 38.666 50.3393 37.8273 48.458C37.0113 46.5767 36.6033 44.3667 36.6033 41.828C36.6033 39.992 36.8526 38.3147 37.3513 36.796C37.8726 35.2773 38.6206 33.9627 39.5953 32.852C40.5926 31.7413 41.8166 30.8913 43.2673 30.302C44.718 29.69 46.384 29.384 48.2653 29.384C49.512 29.384 50.7133 29.5087 51.8693 29.758C53.0253 30.0073 54.0566 30.3587 54.9633 30.812L53.7393 33.396C52.9913 33.056 52.1526 32.75 51.2233 32.478C50.3166 32.206 49.3193 32.07 48.2313 32.07ZM73.0797 47.506C73.0797 48.9567 72.7284 50.192 72.0257 51.212C71.3231 52.2093 70.3144 52.98 68.9997 53.524C67.7077 54.068 66.1777 54.34 64.4097 54.34C63.5031 54.34 62.6304 54.2947 61.7917 54.204C60.9757 54.1133 60.2277 53.9887 59.5477 53.83C58.8677 53.6487 58.2671 53.4333 57.7457 53.184V50.26C58.5617 50.6227 59.5704 50.9513 60.7717 51.246C61.9957 51.5407 63.2537 51.688 64.5457 51.688C65.7471 51.688 66.7557 51.5293 67.5717 51.212C68.3877 50.8947 68.9997 50.4413 69.4077 49.852C69.8157 49.2627 70.0197 48.5713 70.0197 47.778C70.0197 46.9847 69.8497 46.316 69.5097 45.772C69.1697 45.228 68.5804 44.7293 67.7417 44.276C66.9257 43.8 65.7811 43.3013 64.3077 42.78C63.2651 42.3947 62.3471 41.9867 61.5537 41.556C60.7831 41.1027 60.1371 40.5927 59.6157 40.026C59.0944 39.4593 58.6977 38.8133 58.4257 38.088C58.1764 37.3627 58.0517 36.524 58.0517 35.572C58.0517 34.28 58.3804 33.1807 59.0377 32.274C59.6951 31.3447 60.6017 30.6307 61.7577 30.132C62.9364 29.6333 64.2851 29.384 65.8037 29.384C67.1411 29.384 68.3651 29.5087 69.4757 29.758C70.5864 30.0073 71.5951 30.336 72.5017 30.744L71.5497 33.362C70.7111 32.9993 69.7931 32.6933 68.7957 32.444C67.8211 32.1947 66.8011 32.07 65.7357 32.07C64.7157 32.07 63.8657 32.2173 63.1857 32.512C62.5057 32.8067 61.9957 33.226 61.6557 33.77C61.3157 34.2913 61.1457 34.9033 61.1457 35.606C61.1457 36.422 61.3157 37.102 61.6557 37.646C61.9957 38.19 62.5511 38.6773 63.3217 39.108C64.0924 39.5387 65.1351 40.0033 66.4497 40.502C67.8777 41.0233 69.0791 41.59 70.0537 42.202C71.0511 42.7913 71.7991 43.5053 72.2977 44.344C72.8191 45.1827 73.0797 46.2367 73.0797 47.506Z" fill="white"/>
</g>
<defs>
<clipPath id="clip0_5624_8157">
<rect width="84" height="84" fill="white"/>
</clipPath>
</defs>
</svg>
