<svg width="84" height="84" viewBox="0 0 84 84" fill="none" xmlns="http://www.w3.org/2000/svg">
<g clip-path="url(#clip0_5624_8504)">
<rect width="84" height="84" rx="12" fill="#868EAF"/>
<path d="M21.0139 54L13.0239 32.716H12.8879C12.9332 33.1693 12.9672 33.7473 12.9899 34.45C13.0352 35.1527 13.0692 35.9233 13.0919 36.762C13.1145 37.578 13.1259 38.4167 13.1259 39.278V54H10.3039V29.724H14.8259L22.3059 49.614H22.4419L30.0579 29.724H34.5459V54H31.5199V39.074C31.5199 38.2807 31.5312 37.4987 31.5539 36.728C31.5765 35.9347 31.6105 35.198 31.6559 34.518C31.7012 33.8153 31.7352 33.226 31.7579 32.75H31.6219L23.5299 54H21.0139ZM51.5536 32.07C50.2616 32.07 49.0942 32.2967 48.0516 32.75C47.0089 33.1807 46.1249 33.8267 45.3996 34.688C44.6742 35.5267 44.1189 36.558 43.7336 37.782C43.3482 38.9833 43.1556 40.3433 43.1556 41.862C43.1556 43.8567 43.4616 45.5907 44.0736 47.064C44.7082 48.5373 45.6376 49.6707 46.8616 50.464C48.1082 51.2573 49.6609 51.654 51.5196 51.654C52.5849 51.654 53.5936 51.5633 54.5456 51.382C55.4976 51.2007 56.4269 50.974 57.3336 50.702V53.354C56.4269 53.694 55.4862 53.9433 54.5116 54.102C53.5596 54.2607 52.4149 54.34 51.0776 54.34C48.6069 54.34 46.5442 53.83 44.8896 52.81C43.2349 51.79 41.9882 50.3393 41.1496 48.458C40.3336 46.5767 39.9256 44.3667 39.9256 41.828C39.9256 39.992 40.1749 38.3147 40.6736 36.796C41.1949 35.2773 41.9429 33.9627 42.9176 32.852C43.9149 31.7413 45.1389 30.8913 46.5896 30.302C48.0402 29.69 49.7062 29.384 51.5876 29.384C52.8342 29.384 54.0356 29.5087 55.1916 29.758C56.3476 30.0073 57.3789 30.3587 58.2856 30.812L57.0616 33.396C56.3136 33.056 55.4749 32.75 54.5456 32.478C53.6389 32.206 52.6416 32.07 51.5536 32.07ZM76.402 47.506C76.402 48.9567 76.0507 50.192 75.348 51.212C74.6453 52.2093 73.6367 52.98 72.322 53.524C71.03 54.068 69.5 54.34 67.732 54.34C66.8253 54.34 65.9527 54.2947 65.114 54.204C64.298 54.1133 63.55 53.9887 62.87 53.83C62.19 53.6487 61.5893 53.4333 61.068 53.184V50.26C61.884 50.6227 62.8927 50.9513 64.094 51.246C65.318 51.5407 66.576 51.688 67.868 51.688C69.0693 51.688 70.078 51.5293 70.894 51.212C71.71 50.8947 72.322 50.4413 72.73 49.852C73.138 49.2627 73.342 48.5713 73.342 47.778C73.342 46.9847 73.172 46.316 72.832 45.772C72.492 45.228 71.9027 44.7293 71.064 44.276C70.248 43.8 69.1033 43.3013 67.63 42.78C66.5873 42.3947 65.6693 41.9867 64.876 41.556C64.1053 41.1027 63.4593 40.5927 62.938 40.026C62.4167 39.4593 62.02 38.8133 61.748 38.088C61.4987 37.3627 61.374 36.524 61.374 35.572C61.374 34.28 61.7027 33.1807 62.36 32.274C63.0173 31.3447 63.924 30.6307 65.08 30.132C66.2587 29.6333 67.6073 29.384 69.126 29.384C70.4633 29.384 71.6873 29.5087 72.798 29.758C73.9087 30.0073 74.9173 30.336 75.824 30.744L74.872 33.362C74.0333 32.9993 73.1153 32.6933 72.118 32.444C71.1433 32.1947 70.1233 32.07 69.058 32.07C68.038 32.07 67.188 32.2173 66.508 32.512C65.828 32.8067 65.318 33.226 64.978 33.77C64.638 34.2913 64.468 34.9033 64.468 35.606C64.468 36.422 64.638 37.102 64.978 37.646C65.318 38.19 65.8733 38.6773 66.644 39.108C67.4147 39.5387 68.4573 40.0033 69.772 40.502C71.2 41.0233 72.4013 41.59 73.376 42.202C74.3733 42.7913 75.1213 43.5053 75.62 44.344C76.1413 45.1827 76.402 46.2367 76.402 47.506Z" fill="white"/>
</g>
<defs>
<clipPath id="clip0_5624_8504">
<rect width="84" height="84" fill="white"/>
</clipPath>
</defs>
</svg>
