<svg width="84" height="84" viewBox="0 0 84 84" fill="none" xmlns="http://www.w3.org/2000/svg">
<g clip-path="url(#clip0_5624_8805)">
<rect width="84" height="84" rx="12" fill="#868EAF"/>
<path d="M18.5104 47.506C18.5104 48.9567 18.1591 50.192 17.4564 51.212C16.7537 52.2093 15.7451 52.98 14.4304 53.524C13.1384 54.068 11.6084 54.34 9.84038 54.34C8.93372 54.34 8.06105 54.2947 7.22238 54.204C6.40638 54.1133 5.65838 53.9887 4.97838 53.83C4.29838 53.6487 3.69772 53.4333 3.17638 53.184V50.26C3.99238 50.6227 5.00105 50.9513 6.20238 51.246C7.42638 51.5407 8.68438 51.688 9.97638 51.688C11.1777 51.688 12.1864 51.5293 13.0024 51.212C13.8184 50.8947 14.4304 50.4413 14.8384 49.852C15.2464 49.2627 15.4504 48.5713 15.4504 47.778C15.4504 46.9847 15.2804 46.316 14.9404 45.772C14.6004 45.228 14.0111 44.7293 13.1724 44.276C12.3564 43.8 11.2117 43.3013 9.73838 42.78C8.69572 42.3947 7.77772 41.9867 6.98438 41.556C6.21372 41.1027 5.56772 40.5927 5.04638 40.026C4.52505 39.4593 4.12838 38.8133 3.85638 38.088C3.60705 37.3627 3.48238 36.524 3.48238 35.572C3.48238 34.28 3.81105 33.1807 4.46838 32.274C5.12572 31.3447 6.03238 30.6307 7.18838 30.132C8.36705 29.6333 9.71572 29.384 11.2344 29.384C12.5717 29.384 13.7957 29.5087 14.9064 29.758C16.0171 30.0073 17.0257 30.336 17.9324 30.744L16.9804 33.362C16.1417 32.9993 15.2237 32.6933 14.2264 32.444C13.2517 32.1947 12.2317 32.07 11.1664 32.07C10.1464 32.07 9.29638 32.2173 8.61638 32.512C7.93638 32.8067 7.42638 33.226 7.08638 33.77C6.74638 34.2913 6.57638 34.9033 6.57638 35.606C6.57638 36.422 6.74638 37.102 7.08638 37.646C7.42638 38.19 7.98172 38.6773 8.75238 39.108C9.52305 39.5387 10.5657 40.0033 11.8804 40.502C13.3084 41.0233 14.5097 41.59 15.4844 42.202C16.4817 42.7913 17.2297 43.5053 17.7284 44.344C18.2497 45.1827 18.5104 46.2367 18.5104 47.506ZM34.1105 54L26.1205 32.716H25.9845C26.0299 33.1693 26.0639 33.7473 26.0865 34.45C26.1319 35.1527 26.1659 35.9233 26.1885 36.762C26.2112 37.578 26.2225 38.4167 26.2225 39.278V54H23.4005V29.724H27.9225L35.4025 49.614H35.5385L43.1545 29.724H47.6425V54H44.6165V39.074C44.6165 38.2807 44.6279 37.4987 44.6505 36.728C44.6732 35.9347 44.7072 35.198 44.7525 34.518C44.7979 33.8153 44.8319 33.226 44.8545 32.75H44.7185L36.6265 54H34.1105ZM82.1262 29.724L75.6662 54H72.5722L67.8462 38.088C67.7102 37.612 67.5742 37.1247 67.4382 36.626C67.3022 36.1273 67.1776 35.6513 67.0642 35.198C66.9509 34.7447 66.8489 34.3593 66.7582 34.042C66.6902 33.702 66.6449 33.4527 66.6222 33.294C66.5996 33.4527 66.5542 33.702 66.4862 34.042C66.4409 34.3593 66.3616 34.7447 66.2482 35.198C66.1349 35.6513 66.0102 36.1387 65.8742 36.66C65.7609 37.1587 65.6249 37.6687 65.4662 38.19L60.8762 54H57.7822L51.3562 29.724H54.5522L58.3262 44.548C58.4622 45.0693 58.5869 45.5907 58.7002 46.112C58.8136 46.6107 58.9156 47.1093 59.0062 47.608C59.1196 48.084 59.2102 48.5487 59.2782 49.002C59.3462 49.4553 59.4142 49.8973 59.4822 50.328C59.5502 49.8747 59.6182 49.41 59.6862 48.934C59.7769 48.458 59.8789 47.9707 59.9922 47.472C60.1056 46.9507 60.2302 46.4293 60.3662 45.908C60.5022 45.3867 60.6382 44.8767 60.7742 44.378L65.0582 29.724H68.2202L72.6742 44.48C72.8329 45.0013 72.9802 45.534 73.1162 46.078C73.2522 46.5993 73.3769 47.1093 73.4902 47.608C73.6036 48.1067 73.6942 48.594 73.7622 49.07C73.8529 49.5233 73.9322 49.9427 74.0002 50.328C74.0682 49.7613 74.1589 49.172 74.2722 48.56C74.3856 47.9253 74.5216 47.268 74.6802 46.588C74.8389 45.908 75.0089 45.2167 75.1902 44.514L78.9302 29.724H82.1262Z" fill="white"/>
</g>
<defs>
<clipPath id="clip0_5624_8805">
<rect width="84" height="84" fill="white"/>
</clipPath>
</defs>
</svg>
