<svg width="84" height="84" viewBox="0 0 84 84" fill="none" xmlns="http://www.w3.org/2000/svg">
<g clip-path="url(#clip0_5624_10174)">
<path fill-rule="evenodd" clip-rule="evenodd" d="M80.2668 3.7334V14.9307H78.1748V3.7334H80.2668Z" fill="#868EAF"/>
<path fill-rule="evenodd" clip-rule="evenodd" d="M70.2266 12.0491L69.3755 14.9331H67.2002L70.8493 3.73584H73.3673L77.0001 14.9331H74.7133L73.8595 12.0547H70.2266V12.0491ZM73.4303 10.4034L72.098 5.87574H72.0055L70.6731 10.4034H73.4303Z" fill="#868EAF"/>
<path d="M0 10.5V60.375V74.1333C0 79.5825 4.41747 84 9.86668 84H71.8846C75.0978 84 78.1794 82.8938 80.4515 80.9246C82.7236 78.9555 84 76.2848 84 73.5V18.6667H77.9423H66.7556C64.9392 18.6667 63.4667 17.1942 63.4667 15.3778V0H12.1154C8.90218 0 5.82059 1.10625 3.54852 3.07538C1.27644 5.04451 0 7.71523 0 10.5Z" fill="#868EAF"/>
<path d="M32.178 29.724L25.718 54H22.624L17.898 38.088C17.762 37.612 17.626 37.1247 17.49 36.626C17.354 36.1273 17.2293 35.6513 17.116 35.198C17.0027 34.7447 16.9007 34.3593 16.81 34.042C16.742 33.702 16.6967 33.4527 16.674 33.294C16.6513 33.4527 16.606 33.702 16.538 34.042C16.4927 34.3593 16.4133 34.7447 16.3 35.198C16.1867 35.6513 16.062 36.1387 15.926 36.66C15.8127 37.1587 15.6767 37.6687 15.518 38.19L10.928 54H7.834L1.408 29.724H4.604L8.378 44.548C8.514 45.0693 8.63867 45.5907 8.752 46.112C8.86533 46.6107 8.96733 47.1093 9.058 47.608C9.17133 48.084 9.262 48.5487 9.33 49.002C9.398 49.4553 9.466 49.8973 9.534 50.328C9.602 49.8747 9.67 49.41 9.738 48.934C9.82867 48.458 9.93067 47.9707 10.044 47.472C10.1573 46.9507 10.282 46.4293 10.418 45.908C10.554 45.3867 10.69 44.8767 10.826 44.378L15.11 29.724H18.272L22.726 44.48C22.8847 45.0013 23.032 45.534 23.168 46.078C23.304 46.5993 23.4287 47.1093 23.542 47.608C23.6553 48.1067 23.746 48.594 23.814 49.07C23.9047 49.5233 23.984 49.9427 24.052 50.328C24.12 49.7613 24.2107 49.172 24.324 48.56C24.4373 47.9253 24.5733 47.268 24.732 46.588C24.8907 45.908 25.0607 45.2167 25.242 44.514L28.982 29.724H32.178ZM38.9674 54H35.9074V29.724H49.4734V32.41H38.9674V41.012H48.8274V43.698H38.9674V54ZM72.9862 41.624C72.9862 44.344 72.4762 46.622 71.4562 48.458C70.4589 50.294 69.0196 51.6767 67.1382 52.606C65.2569 53.5353 62.9789 54 60.3042 54H53.5382V29.724H61.0182C63.4662 29.724 65.5856 30.1773 67.3762 31.084C69.1669 31.9907 70.5496 33.328 71.5242 35.096C72.4989 36.8413 72.9862 39.0173 72.9862 41.624ZM69.7562 41.726C69.7562 39.5727 69.3936 37.8047 68.6682 36.422C67.9656 35.0393 66.9229 34.0193 65.5402 33.362C64.1802 32.682 62.5256 32.342 60.5762 32.342H56.5982V51.382H59.8962C63.1829 51.382 65.6422 50.5773 67.2742 48.968C68.9289 47.336 69.7562 44.922 69.7562 41.726Z" fill="white"/>
</g>
<defs>
<clipPath id="clip0_5624_10174">
<rect width="84" height="84" fill="white"/>
</clipPath>
</defs>
</svg>
