<svg xmlns="http://www.w3.org/2000/svg" width="24" height="24" viewBox="0 0 24 24" fill="none">
  <path fill-rule="evenodd" clip-rule="evenodd" d="M11.611 2C12.06 2 12.5091 2.12245 13.0282 2.36735C13.4492 2.58503 13.9684 2.96599 14.1788 3.22449C14.3893 3.48299 14.6699 3.97279 14.7822 4.31293C14.9506 4.7483 15.0067 5.41497 15.0067 8.39456L17.7008 8.43537C19.8757 8.46258 20.4931 8.51701 20.8299 8.69388C21.0544 8.81633 21.4192 9.08844 21.6297 9.30612C21.8402 9.5102 22.0787 9.85034 22.1489 10.0544C22.233 10.2721 22.3032 10.7075 22.3032 11.0476C22.3032 11.3878 22.0226 13.4558 21.6718 15.6327C21.335 17.8231 20.9842 19.8639 20.9 20.1633C20.8158 20.4898 20.5352 20.9116 20.2265 21.1973C19.9459 21.4694 19.4828 21.7687 19.2162 21.8503C18.8654 21.9592 16.5642 22 11.4286 22C4.69337 22 4.09001 21.9728 3.57083 21.7415C3.26214 21.619 2.84118 21.3061 2.61668 21.0748C2.4062 20.8299 2.19572 20.4762 2.12557 20.2585C2.06944 20.0544 2.02734 18.2041 2.02734 16.1497C2.02734 14.0952 2.06944 12.2449 2.12557 12.0272C2.19572 11.8231 2.4062 11.4694 2.61668 11.2245C2.84118 10.9932 3.26214 10.6803 3.57083 10.5578C3.99179 10.3673 4.49693 10.2993 7.07877 10.2857L8.81871 6.44898C9.77286 4.34014 10.6428 2.47619 10.7551 2.29932C10.9094 2.05442 11.0638 2 11.611 2ZM8.27147 11.3197V20.5034H18.8093C19.3425 19.9728 19.4969 19.7415 19.4969 19.6463C19.4969 19.5646 19.8056 17.5782 20.1844 15.2653C20.6615 12.2993 20.8299 10.9388 20.7457 10.6667C20.6755 10.4626 20.437 10.2041 20.1984 10.0952C19.8617 9.93197 19.1741 9.89116 16.8589 9.89116C14.249 9.90476 13.9263 9.87755 13.7158 9.65986C13.5053 9.44218 13.4632 9.10204 13.4632 7.17007C13.4632 5.17007 13.4351 4.87075 13.1826 4.47619C13.0282 4.2449 12.6915 3.91837 12.4389 3.76871C12.2004 3.61905 11.9618 3.4966 11.9197 3.4966C11.8776 3.4966 11.0357 5.2517 10.0535 7.40136L8.27147 11.3197ZM3.57083 12.5034V19.8095C4.25839 20.4898 4.35661 20.517 5.57737 20.517L6.86829 20.5034V11.8095C4.32855 11.8095 4.23033 11.8231 3.9076 12.1497L3.57083 12.5034Z" fill="#9A9AAF"/>
</svg>