<svg width="152" height="34" viewBox="0 0 152 34" fill="none" xmlns="http://www.w3.org/2000/svg">
<path d="M0 32H152V34H0V32Z" fill="#868EAF"/>
<path d="M1.62 18V5.148H4.338V15.75H9.558V18H1.62ZM14.2637 8.172V18H11.5817V8.172H14.2637ZM12.9317 4.32C13.3277 4.32 13.6697 4.416 13.9577 4.608C14.2457 4.788 14.3897 5.13 14.3897 5.634C14.3897 6.126 14.2457 6.468 13.9577 6.66C13.6697 6.852 13.3277 6.948 12.9317 6.948C12.5237 6.948 12.1757 6.852 11.8877 6.66C11.6117 6.468 11.4737 6.126 11.4737 5.634C11.4737 5.13 11.6117 4.788 11.8877 4.608C12.1757 4.416 12.5237 4.32 12.9317 4.32ZM23.9241 15.084C23.9241 15.744 23.7681 16.308 23.4561 16.776C23.1441 17.232 22.6761 17.58 22.0521 17.82C21.4281 18.06 20.6541 18.18 19.7301 18.18C19.0461 18.18 18.4581 18.132 17.9661 18.036C17.4741 17.952 16.9821 17.808 16.4901 17.604V15.39C17.0181 15.63 17.5881 15.828 18.2001 15.984C18.8121 16.14 19.3521 16.218 19.8201 16.218C20.3481 16.218 20.7201 16.14 20.9361 15.984C21.1641 15.828 21.2781 15.624 21.2781 15.372C21.2781 15.204 21.2301 15.054 21.1341 14.922C21.0501 14.79 20.8581 14.64 20.5581 14.472C20.2581 14.304 19.7901 14.088 19.1541 13.824C18.5421 13.56 18.0381 13.302 17.6421 13.05C17.2461 12.786 16.9521 12.474 16.7601 12.114C16.5681 11.742 16.4721 11.28 16.4721 10.728C16.4721 9.816 16.8261 9.132 17.5341 8.676C18.2421 8.22 19.1841 7.992 20.3601 7.992C20.9721 7.992 21.5541 8.052 22.1061 8.172C22.6581 8.292 23.2281 8.49 23.8161 8.766L23.0061 10.692C22.6821 10.548 22.3701 10.422 22.0701 10.314C21.7701 10.206 21.4761 10.122 21.1881 10.062C20.9121 10.002 20.6241 9.972 20.3241 9.972C19.9281 9.972 19.6281 10.026 19.4241 10.134C19.2321 10.242 19.1361 10.404 19.1361 10.62C19.1361 10.776 19.1841 10.92 19.2801 11.052C19.3881 11.172 19.5861 11.304 19.8741 11.448C20.1741 11.592 20.6121 11.784 21.1881 12.024C21.7521 12.252 22.2381 12.492 22.6461 12.744C23.0541 12.984 23.3661 13.29 23.5821 13.662C23.8101 14.022 23.9241 14.496 23.9241 15.084ZM30.1534 16.038C30.4534 16.038 30.7414 16.008 31.0174 15.948C31.2934 15.888 31.5694 15.816 31.8454 15.732V17.73C31.5574 17.85 31.1974 17.952 30.7654 18.036C30.3454 18.132 29.8834 18.18 29.3794 18.18C28.7914 18.18 28.2634 18.084 27.7954 17.892C27.3394 17.7 26.9734 17.37 26.6974 16.902C26.4334 16.422 26.3014 15.762 26.3014 14.922V10.188H25.0234V9.054L26.4994 8.154L27.2734 6.084H28.9834V8.172H31.7374V10.188H28.9834V14.922C28.9834 15.294 29.0914 15.576 29.3074 15.768C29.5234 15.948 29.8054 16.038 30.1534 16.038ZM37.8681 7.992C38.7801 7.992 39.5601 8.166 40.2081 8.514C40.8681 8.862 41.3781 9.366 41.7381 10.026C42.0981 10.686 42.2781 11.496 42.2781 12.456V13.752H35.9421C35.9661 14.508 36.1881 15.102 36.6081 15.534C37.0401 15.966 37.6341 16.182 38.3901 16.182C39.0261 16.182 39.6021 16.122 40.1181 16.002C40.6341 15.87 41.1681 15.672 41.7201 15.408V17.478C41.2401 17.718 40.7301 17.892 40.1901 18C39.6621 18.12 39.0201 18.18 38.2641 18.18C37.2801 18.18 36.4101 18 35.6541 17.64C34.8981 17.268 34.3041 16.71 33.8721 15.966C33.4401 15.222 33.2241 14.286 33.2241 13.158C33.2241 12.006 33.4161 11.052 33.8001 10.296C34.1961 9.528 34.7421 8.952 35.4381 8.568C36.1341 8.184 36.9441 7.992 37.8681 7.992ZM37.8861 9.9C37.3701 9.9 36.9381 10.068 36.5901 10.404C36.2541 10.74 36.0561 11.262 35.9961 11.97H39.7581C39.7581 11.574 39.6861 11.22 39.5421 10.908C39.4101 10.596 39.2061 10.35 38.9301 10.17C38.6541 9.99 38.3061 9.9 37.8861 9.9ZM50.0328 7.992C51.0888 7.992 51.9348 8.28 52.5708 8.856C53.2068 9.42 53.5248 10.332 53.5248 11.592V18H50.8428V12.258C50.8428 11.55 50.7168 11.022 50.4648 10.674C50.2128 10.314 49.8108 10.134 49.2588 10.134C48.4428 10.134 47.8848 10.416 47.5848 10.98C47.2848 11.532 47.1348 12.33 47.1348 13.374V18H44.4528V8.172H46.5048L46.8648 9.432H47.0088C47.2248 9.096 47.4888 8.826 47.8008 8.622C48.1128 8.406 48.4608 8.25 48.8448 8.154C49.2288 8.046 49.6248 7.992 50.0328 7.992ZM58.9649 8.172V18H56.2829V8.172H58.9649ZM57.6329 4.32C58.0289 4.32 58.3709 4.416 58.6589 4.608C58.9469 4.788 59.0909 5.13 59.0909 5.634C59.0909 6.126 58.9469 6.468 58.6589 6.66C58.3709 6.852 58.0289 6.948 57.6329 6.948C57.2249 6.948 56.8769 6.852 56.5889 6.66C56.3129 6.468 56.1749 6.126 56.1749 5.634C56.1749 5.13 56.3129 4.788 56.5889 4.608C56.8769 4.416 57.2249 4.32 57.6329 4.32ZM67.3473 7.992C68.4033 7.992 69.2493 8.28 69.8853 8.856C70.5213 9.42 70.8393 10.332 70.8393 11.592V18H68.1573V12.258C68.1573 11.55 68.0313 11.022 67.7793 10.674C67.5273 10.314 67.1253 10.134 66.5733 10.134C65.7573 10.134 65.1993 10.416 64.8993 10.98C64.5993 11.532 64.4493 12.33 64.4493 13.374V18H61.7673V8.172H63.8193L64.1793 9.432H64.3233C64.5393 9.096 64.8033 8.826 65.1153 8.622C65.4273 8.406 65.7753 8.25 66.1593 8.154C66.5433 8.046 66.9393 7.992 67.3473 7.992ZM76.7834 7.992C77.3834 7.992 77.9234 8.112 78.4034 8.352C78.8834 8.592 79.2914 8.952 79.6274 9.432H79.6994L79.9154 8.172H82.1834V18.018C82.1834 18.954 81.9974 19.74 81.6254 20.376C81.2654 21.012 80.7194 21.492 79.9874 21.816C79.2554 22.152 78.3494 22.32 77.2694 22.32C76.5734 22.32 75.9254 22.278 75.3254 22.194C74.7374 22.11 74.1614 21.96 73.5974 21.744V19.602C74.0054 19.77 74.4134 19.908 74.8214 20.016C75.2414 20.136 75.6674 20.22 76.0994 20.268C76.5434 20.328 76.9874 20.358 77.4314 20.358C78.1274 20.358 78.6434 20.172 78.9794 19.8C79.3274 19.428 79.5014 18.87 79.5014 18.126V17.928C79.5014 17.724 79.5074 17.514 79.5194 17.298C79.5434 17.082 79.5614 16.89 79.5734 16.722H79.5014C79.1654 17.238 78.7634 17.61 78.2954 17.838C77.8274 18.066 77.2994 18.18 76.7114 18.18C75.5474 18.18 74.6354 17.736 73.9754 16.848C73.3274 15.948 73.0034 14.7 73.0034 13.104C73.0034 12.024 73.1534 11.106 73.4534 10.35C73.7534 9.582 74.1854 9 74.7494 8.604C75.3254 8.196 76.0034 7.992 76.7834 7.992ZM77.6294 10.17C77.2094 10.17 76.8554 10.284 76.5674 10.512C76.2914 10.728 76.0814 11.058 75.9374 11.502C75.8054 11.934 75.7394 12.48 75.7394 13.14C75.7394 14.124 75.8954 14.862 76.2074 15.354C76.5194 15.834 77.0054 16.074 77.6654 16.074C78.0134 16.074 78.3134 16.032 78.5654 15.948C78.8174 15.852 79.0214 15.702 79.1774 15.498C79.3454 15.282 79.4714 15.006 79.5554 14.67C79.6394 14.334 79.6814 13.926 79.6814 13.446V13.122C79.6814 12.414 79.6094 11.844 79.4654 11.412C79.3214 10.98 79.0994 10.668 78.7994 10.476C78.4994 10.272 78.1094 10.17 77.6294 10.17Z" fill="#868EAF"/>
</svg>
