<svg width="84" height="84" viewBox="0 0 84 84" fill="none" xmlns="http://www.w3.org/2000/svg">
<g clip-path="url(#clip0_5609_6429)">
<rect width="84" height="84" rx="12" fill="#AD826E"/>
<path d="M20.008 54L12.018 32.716H11.882C11.9273 33.1693 11.9613 33.7473 11.984 34.45C12.0293 35.1527 12.0633 35.9233 12.086 36.762C12.1087 37.578 12.12 38.4167 12.12 39.278V54H9.298V29.724H13.82L21.3 49.614H21.436L29.052 29.724H33.54V54H30.514V39.074C30.514 38.2807 30.5253 37.4987 30.548 36.728C30.5707 35.9347 30.6047 35.198 30.65 34.518C30.6953 33.8153 30.7293 33.226 30.752 32.75H30.616L22.524 54H20.008ZM50.5477 32.07C49.2557 32.07 48.0884 32.2967 47.0457 32.75C46.003 33.1807 45.119 33.8267 44.3937 34.688C43.6684 35.5267 43.113 36.558 42.7277 37.782C42.3424 38.9833 42.1497 40.3433 42.1497 41.862C42.1497 43.8567 42.4557 45.5907 43.0677 47.064C43.7024 48.5373 44.6317 49.6707 45.8557 50.464C47.1024 51.2573 48.655 51.654 50.5137 51.654C51.579 51.654 52.5877 51.5633 53.5397 51.382C54.4917 51.2007 55.421 50.974 56.3277 50.702V53.354C55.421 53.694 54.4804 53.9433 53.5057 54.102C52.5537 54.2607 51.409 54.34 50.0717 54.34C47.601 54.34 45.5384 53.83 43.8837 52.81C42.229 51.79 40.9824 50.3393 40.1437 48.458C39.3277 46.5767 38.9197 44.3667 38.9197 41.828C38.9197 39.992 39.169 38.3147 39.6677 36.796C40.189 35.2773 40.937 33.9627 41.9117 32.852C42.909 31.7413 44.133 30.8913 45.5837 30.302C47.0344 29.69 48.7004 29.384 50.5817 29.384C51.8284 29.384 53.0297 29.5087 54.1857 29.758C55.3417 30.0073 56.373 30.3587 57.2797 30.812L56.0557 33.396C55.3077 33.056 54.469 32.75 53.5397 32.478C52.633 32.206 51.6357 32.07 50.5477 32.07ZM75.3961 47.506C75.3961 48.9567 75.0448 50.192 74.3421 51.212C73.6395 52.2093 72.6308 52.98 71.3161 53.524C70.0241 54.068 68.4941 54.34 66.7261 54.34C65.8195 54.34 64.9468 54.2947 64.1081 54.204C63.2921 54.1133 62.5441 53.9887 61.8641 53.83C61.1841 53.6487 60.5835 53.4333 60.0621 53.184V50.26C60.8781 50.6227 61.8868 50.9513 63.0881 51.246C64.3121 51.5407 65.5701 51.688 66.8621 51.688C68.0635 51.688 69.0721 51.5293 69.8881 51.212C70.7041 50.8947 71.3161 50.4413 71.7241 49.852C72.1321 49.2627 72.3361 48.5713 72.3361 47.778C72.3361 46.9847 72.1661 46.316 71.8261 45.772C71.4861 45.228 70.8968 44.7293 70.0581 44.276C69.2421 43.8 68.0975 43.3013 66.6241 42.78C65.5815 42.3947 64.6635 41.9867 63.8701 41.556C63.0995 41.1027 62.4535 40.5927 61.9321 40.026C61.4108 39.4593 61.0141 38.8133 60.7421 38.088C60.4928 37.3627 60.3681 36.524 60.3681 35.572C60.3681 34.28 60.6968 33.1807 61.3541 32.274C62.0115 31.3447 62.9181 30.6307 64.0741 30.132C65.2528 29.6333 66.6015 29.384 68.1201 29.384C69.4575 29.384 70.6815 29.5087 71.7921 29.758C72.9028 30.0073 73.9115 30.336 74.8181 30.744L73.8661 33.362C73.0275 32.9993 72.1095 32.6933 71.1121 32.444C70.1375 32.1947 69.1175 32.07 68.0521 32.07C67.0321 32.07 66.1821 32.2173 65.5021 32.512C64.8221 32.8067 64.3121 33.226 63.9721 33.77C63.6321 34.2913 63.4621 34.9033 63.4621 35.606C63.4621 36.422 63.6321 37.102 63.9721 37.646C64.3121 38.19 64.8675 38.6773 65.6381 39.108C66.4088 39.5387 67.4515 40.0033 68.7661 40.502C70.1941 41.0233 71.3955 41.59 72.3701 42.202C73.3675 42.7913 74.1155 43.5053 74.6141 44.344C75.1355 45.1827 75.3961 46.2367 75.3961 47.506Z" fill="white"/>
</g>
<defs>
<clipPath id="clip0_5609_6429">
<rect width="84" height="84" fill="white"/>
</clipPath>
</defs>
</svg>
