<svg width="30" height="30" viewBox="0 0 30 30" fill="none" xmlns="http://www.w3.org/2000/svg">
<path d="M25.4619 16.6354C25.3619 16.5887 25.2534 16.5633 25.1431 16.5608C25.0329 16.5582 24.9233 16.5785 24.8213 16.6204C24.7196 16.6584 24.6264 16.7161 24.5471 16.7902C24.4678 16.8644 24.4039 16.9535 24.3592 17.0524C22.0935 22.2249 16.0565 24.5799 10.8841 22.3141C8.54919 21.2854 6.67956 19.4262 5.63773 17.0971C5.59297 16.9981 5.52907 16.909 5.4497 16.8348C5.37033 16.7607 5.27707 16.7029 5.1753 16.665C5.07218 16.6255 4.96201 16.6077 4.85171 16.6128C4.74141 16.6179 4.63335 16.6458 4.53432 16.6946C4.43529 16.7404 4.34629 16.8053 4.27242 16.8856C4.19855 16.9659 4.14128 17.06 4.10388 17.1625C4.06649 17.265 4.04971 17.3739 4.05451 17.4829C4.05932 17.5919 4.08561 17.6989 4.13188 17.7977C5.00888 19.7656 6.40404 21.4582 8.16829 22.6948C9.93253 23.9313 11.9996 24.6653 14.1486 24.8184V28.1572H11.5847C11.3773 28.1747 11.1841 28.2694 11.0432 28.4226C10.9024 28.5758 10.8242 28.7763 10.8242 28.9844C10.8242 29.1925 10.9024 29.393 11.0432 29.5462C11.1841 29.6994 11.3773 29.7941 11.5847 29.8116H18.4561C18.6635 29.7941 18.8568 29.6994 18.9976 29.5462C19.1385 29.393 19.2166 29.1925 19.2166 28.9844C19.2166 28.7763 19.1385 28.5758 18.9976 28.4226C18.8568 28.2694 18.6635 28.1747 18.4561 28.1572H15.8626V24.8184C18.0151 24.6564 20.0833 23.9138 21.8472 22.6696C23.6112 21.4255 25.0048 19.7263 25.8797 17.753C26.0582 17.3206 25.8797 16.8293 25.4619 16.6354Z" fill="white"/>
<path d="M22.5852 7.3491C22.5556 3.26471 19.2164 -0.0294358 15.1324 0.000198384H14.9239C10.8395 -0.0294358 7.50034 3.26471 7.4707 7.3491V12.5212C7.4722 13.4891 7.6653 14.4471 8.03885 15.34C8.41239 16.2329 8.95901 17.043 9.64717 17.7236C10.3426 18.4103 11.1665 18.9533 12.0719 19.3215C12.9772 19.6897 13.9462 19.876 14.9235 19.8697H15.1174C17.0918 19.8699 18.987 19.0935 20.3938 17.7082C21.795 16.337 22.5698 14.4587 22.5852 12.5058V7.3491ZM20.9008 8.75032V12.5212C20.8712 15.6961 18.2923 18.245 15.1174 18.2153H14.9089C11.7486 18.245 9.15509 15.6961 9.12546 12.5212V7.3491C9.15509 4.18886 11.7486 1.63995 14.9089 1.65495H15.1174C17.547 1.64032 19.7235 3.16044 20.573 5.44117C20.5877 5.47081 20.5877 5.50081 20.6027 5.53044C20.6194 5.56287 20.6296 5.59831 20.6327 5.63471V5.64971C20.6473 5.67934 20.6473 5.70934 20.6623 5.73898C20.6773 5.76898 20.6623 5.78398 20.6773 5.81361C20.7058 5.88056 20.7259 5.95044 20.7369 6.02215V6.06715C20.7516 6.11178 20.7516 6.15642 20.7669 6.18642C20.8116 6.26105 20.8266 6.35032 20.8412 6.43959C20.8741 6.54569 20.884 6.65727 20.8712 6.76776C20.8891 6.87605 20.899 6.98581 20.9008 7.09556V8.75032Z" fill="white"/>
</svg>
