<?xml version="1.0" encoding="UTF-8"?>
<svg id="Layer_2" data-name="Layer 2" xmlns="http://www.w3.org/2000/svg" viewBox="0 0 3198.3 649.58">
  <defs>
    <style>
      .cls-1 {
        fill: #291b56;
      }

      .cls-1, .cls-2, .cls-3, .cls-4 {
        stroke-width: 0px;
      }

      .cls-2 {
        fill: #fff;
      }

      .cls-2, .cls-3 {
        fill-rule: evenodd;
      }

      .cls-3, .cls-4 {
        fill: #6b41cb;
      }
    </style>
  </defs>
  <g id="Logos">
    <g>
      <path class="cls-3" d="m522.94,420.32c0,132.14-117.82,229.26-299.32,229.26-80.64,0-157.71-21.04-223.61-60.6l42.5-168.23c107.27,95.39,290.97,87.47,290.97,12.31,0-82.79-283.4-20.7-283.4-213.34C50.06,85.97,163.11,0,344.61,0c73.23,0,141.69,12.73,194.24,36.62l-35.04,144.88c-47.75-30.24-108.26-46.16-168.77-46.16-73.23,0-111.44,25.47-111.44,58.9,0,84.38,299.32,36.62,299.32,226.09Z"/>
      <path class="cls-4" d="m1282.56,203.2l-75.18,426.1h149.63l75.18-426.1h-149.63Zm164.82-176.97c-13.17-11.64-31.4-17.47-54.68-17.47-19.26,0-36.72,4.07-52.41,12.15-15.71,8.11-27.99,18.87-36.83,32.29-8.87,13.42-13.3,28.23-13.3,44.42,0,18.23,6.58,33.18,19.74,44.82,13.16,11.66,31.64,17.47,55.45,17.47,19.24,0,36.58-3.93,52.03-11.78,15.43-7.85,27.58-18.61,36.45-32.28,8.86-13.66,13.3-28.35,13.3-44.05,0-18.73-6.59-33.92-19.75-45.58Z"/>
      <path class="cls-4" d="m1679.58,168.64c9.62-6.83,23.3-10.26,41.02-10.26,6.58,0,11.65.27,15.19.77l22.78-126.85c-14.18-1.01-24.56-1.51-31.14-1.51-60.27,0-109.26,14.94-146.98,44.82-37.72,29.87-61.64,72.42-71.78,127.59h-48.6l-21.27,124.57h47.86l-53.17,301.53h149.63l53.17-301.53h69.87l22.03-124.57h-69.12c4.04-16.2,10.88-27.72,20.5-34.56Z"/>
      <path class="cls-4" d="m1938.59,327.78h77.48l22.01-124.57h-77.47l18.23-103.3h-148.87l-18.23,103.3h-55.45l-22.01,124.57h55.44l-24.3,134.43c-3.04,16.7-4.57,32.16-4.57,46.33,0,80.51,47.35,120.77,142.04,120.77h60.76l23.54-127.6h-41.02c-11.65,0-20.01-2.01-25.06-6.07-5.07-4.06-7.59-10.64-7.59-19.75,0-4.56.24-8.1.75-10.63l24.3-137.47Z"/>
      <g>
        <path class="cls-1" d="m2366.43,203.2l-40.26,229.38v-3.8c-4.56,25.83-14.56,45.84-30.01,60.01-15.45,14.19-34.3,21.27-56.58,21.27-18.74,0-33.3-5.19-43.66-15.57-10.38-10.38-15.58-24.95-15.58-43.68,0-8.1.5-14.43,1.52-18.99l40.26-228.62h-148.11l-44.06,246.85c-3.03,16.71-4.56,32.66-4.56,47.85,0,42.53,11.39,75.72,34.19,99.5,22.78,23.82,54.68,35.71,95.7,35.71,30.89,0,59.11-6.7,84.69-20.13,25.56-13.41,46.71-31.53,63.42-54.31l-12.14,70.64h149.63l75.19-426.1h-149.63Z"/>
        <path class="cls-1" d="m2924.42,235.1c-22.78-23.78-54.69-35.7-95.7-35.7-31.4,0-59.89,6.84-85.45,20.5-25.58,13.68-46.71,31.91-63.42,54.7l12.9-71.4h-149.63l-74.43,426.1h148.87l40.26-229.38v3.03c4.56-25.82,14.55-45.82,30-59.99,15.44-14.18,34.3-21.27,56.59-21.27,18.73,0,33.28,5.19,43.66,15.57,10.38,10.38,15.57,24.95,15.57,43.68,0,8.62-.5,15.19-1.51,19.74l-40.26,228.62h148.87l43.3-247.61c3.03-16.7,4.56-32.4,4.56-47.1,0-42.53-11.39-75.68-34.19-99.5Z"/>
        <path class="cls-1" d="m3013.72,203.2l-75.18,426.1h149.63l75.18-426.1h-149.63Zm164.82-176.97c-13.17-11.64-31.4-17.47-54.68-17.47-19.25,0-36.71,4.07-52.41,12.15-15.7,8.11-27.99,18.87-36.83,32.29-8.87,13.42-13.3,28.23-13.3,44.42,0,18.23,6.58,33.18,19.74,44.82,13.16,11.66,31.65,17.47,55.45,17.47,19.24,0,36.58-3.93,52.03-11.78,15.43-7.85,27.58-18.61,36.46-32.28,8.86-13.66,13.3-28.35,13.3-44.05,0-18.73-6.6-33.92-19.76-45.58Z"/>
      </g>
      <path class="cls-4" d="m1010.62,393.56s-.26.41-.71,1.17c-12.99,21.9-22.32,44.7-27.99,68.41-10.33-46.65-27.84-75.25-53.43-86.86-15.56-4.31-29.48-5.64-41.68-3.85-1.21.18-2.39.38-3.56.63-19.39,3.96-34.15,16.33-43.92,37.77-21.9-.78-40.54,4.53-55.81,14.96,27.25,6.94,46.34,23.84,59.33,41.98,20.74,28.95,25.96,61.04,24.15,60.83-14.76-5.67-29.76-9.65-44.99-11.96-66.55-10.06-137.42,12.14-211.71,67.76,50.4-17.94,110.46-13.44,177.21,13.13l-13.55,31.76h-167.87l-26.91-397.24-1.95-28.86h0s148.11,0,148.11,0h0s-3.8,284.83-3.8,284.83v-.03s116.97-284.8,116.97-284.8h159.5s12.6,190.37,12.6,190.37Z"/>
      <g>
        <path class="cls-2" d="m873.59,425.53c-3.62-4.83-2.63-11.68,2.21-15.29,4.83-3.61,11.68-2.63,15.29,2.21,3.61,4.83,2.63,11.68-2.21,15.29-4.83,3.62-11.68,2.63-15.29-2.21Z"/>
        <path class="cls-3" d="m888.88,427.74c-4.83,3.62-11.68,2.63-15.29-2.21-3.62-4.83-2.63-11.68,2.21-15.29,4.83-3.61,11.68-2.63,15.29,2.21,3.61,4.83,2.63,11.68-2.21,15.29Z"/>
      </g>
      <path class="cls-4" d="m1252.47,203.2l-3.37,7.96-177.41,418.14c-28.16-248.02,160.04-402.27,160.04-402.27-62.15,5.1-113.97,40.85-151.78,77.93l34.29-101.77h138.23Z"/>
    </g>
  </g>
</svg>