<svg width="24" height="24" viewBox="0 0 24 24" fill="none" xmlns="http://www.w3.org/2000/svg">
<path d="M3.875 3.96429V19.0714H21.0625C21.3111 19.0714 21.5496 19.173 21.7254 19.3539C21.9012 19.5347 22 19.78 22 20.0357C22 20.2915 21.9012 20.5367 21.7254 20.7176C21.5496 20.8984 21.3111 21 21.0625 21H2.9375C2.68886 21 2.4504 20.8984 2.27459 20.7176C2.09877 20.5367 2 20.2915 2 20.0357V3.96429C2 3.70854 2.09877 3.46327 2.27459 3.28243C2.4504 3.10159 2.68886 3 2.9375 3C3.18614 3 3.4246 3.10159 3.60041 3.28243C3.77623 3.46327 3.875 3.70854 3.875 3.96429ZM21.725 7.21714L15.1625 13.9671C14.9867 14.1477 14.7484 14.2492 14.5 14.2492C14.2516 14.2492 14.0133 14.1477 13.8375 13.9671L10.75 10.7914L7.35 14.2886C7.17217 14.4588 6.93711 14.5515 6.69421 14.5472C6.45132 14.5429 6.2195 14.4419 6.0475 14.2654C5.87595 14.0885 5.77775 13.8501 5.77356 13.6002C5.76936 13.3504 5.85949 13.1086 6.025 12.9257L10.0875 8.74714C10.2633 8.56656 10.5016 8.46513 10.75 8.46513C10.9984 8.46513 11.2367 8.56656 11.4125 8.74714L14.5 11.9229L20.4 5.85429C20.5778 5.68405 20.8129 5.59134 21.0558 5.59566C21.2987 5.59997 21.5305 5.70097 21.7025 5.87743C21.8741 6.05435 21.9722 6.29278 21.9764 6.54262C21.9806 6.79245 21.8905 7.03424 21.725 7.21714Z" fill="#C6CBD9"/>
</svg>
