<svg width="48" height="48" viewBox="0 0 48 48" fill="none" xmlns="http://www.w3.org/2000/svg">
<rect width="48" height="48" rx="8" fill="#996CFE"/>
<path d="M12.2261 10H36.2087L36.9391 10.1826L37.7913 10.6087L38.4 11.0957L39.0696 11.9478L39.313 12.4957L39.4348 13.1652V24.6696L39.2522 25.5217L38.7652 26.3739L38.4609 26.6783L37.913 27.1652L37 27.6522L36.9391 29.4783L36.7565 30.513L36.3304 31.3043L35.4783 32.1565L34.6261 32.6435L34.3826 32.7043V34.713L34.2 35.6261L33.7739 36.4174L33.0435 37.1478L32.3739 37.5739L31.7043 37.8783L31.1565 38H17.2783L16.6087 37.8174L15.6348 37.3304L14.9043 36.6609L14.6609 36.3565V36.2348H14.5391L14.1739 35.4435L14.0522 34.713V32.7043L13.687 32.5826L12.9565 32.1565L12.2261 31.4261L12.1043 31.1217H11.9826L11.6783 30.513L11.4957 29.4783L11.4348 27.6522L10.5217 27.1652L9.85217 26.5565L9.36522 25.887L9.12174 25.3391L9 24.7304V13.1652L9.18261 12.313L9.6087 11.5826L10.0348 11.0957L10.7652 10.5478L11.4957 10.1826L12.2261 10ZM12.8348 12.6174L12.287 12.7391L11.7391 13.2261L11.5565 13.713V15.0522H11.9826L12.713 14.8087L13.2 14.4435L13.5652 14.0783V13.9565H13.687L13.9913 13.2261L14.0522 12.6174H12.8348ZM16.6087 12.6174L16.5478 13.4696L16.3652 14.3826L15.8783 15.3565L15.3913 16.0261L14.7826 16.5739L14.113 17L13.3826 17.3652L12.4696 17.6087L11.5565 17.7304V20.1652L12.713 20.287L13.8087 20.6522L14.6609 21.2L15.4522 21.8696L16.0609 22.7826L16.4261 23.6957L16.5478 24.4261L16.6087 25.2174H31.8261L31.9478 24.1217L32.0696 23.513L32.4348 22.6609L33.0435 21.8087L33.8348 21.1391L34.6261 20.6522L35.7217 20.287L36.8783 20.1652V17.7304L35.6609 17.5478L34.7478 17.2435L33.8957 16.7565L32.9826 15.9652L32.4348 15.1739L32.0087 14.2L31.887 13.4696L31.8261 12.6174H16.6087ZM34.3826 12.6174L34.4435 13.2261L34.7478 13.9565H34.8696L34.9913 14.2L35.5391 14.687L36.0261 14.9304L36.513 15.0522H36.8783V13.713L36.6957 13.2261L36.1478 12.7391L35.6 12.6174H34.3826ZM11.5565 22.7826V24.1217L11.7391 24.6087L11.9826 24.913L12.4087 25.1565L12.6522 25.2174H14.0522L13.9913 24.6696L13.7478 24L13.1391 23.3304L12.5304 22.9652L11.8 22.7826H11.5565ZM36.6348 22.7826L35.9043 22.9652L35.2348 23.3913L34.687 24L34.4435 24.6696L34.3826 25.2174H35.7826L36.2696 25.0348L36.5739 24.7913L36.8174 24.3652L36.8783 24.1217V22.7826H36.6348ZM14.113 27.8348V29.2957L14.3565 29.7826L14.7826 30.1478L15.087 30.2696H33.3478L33.8348 30.0261L34.2 29.6L34.3217 29.2957V27.8348H14.113ZM16.6087 32.9478V34.1043L16.7304 34.5913L16.9739 34.9565L17.2783 35.2L17.5217 35.3217L17.887 35.3826H30.5478L31.0348 35.2609L31.4 35.0174L31.6435 34.713L31.7652 34.4696L31.8261 34.1043V32.9478H16.6087Z" fill="white"/>
<path d="M23.5478 13.8348H24.887L25.9217 14.0174L26.8956 14.5043L27.5652 14.9913L28.2957 15.7217L28.7826 16.513L29.087 17.1217L29.2696 17.9739L29.3304 18.4609V19.3739L29.1478 20.5913L28.7826 21.3826L28.2957 22.113L27.687 22.7826L26.8348 23.3913L25.9826 23.8174L25.0087 24H23.4261L22.4522 23.8174L21.4783 23.3304L20.6261 22.6609L20.0783 22.0522L19.5304 21.1391L19.287 20.5913L19.1043 19.3739V18.4609L19.287 17.3043L19.6522 16.513L20.2 15.6609L20.9913 14.8696L21.8435 14.3217L22.513 14.0174L23.5478 13.8348ZM23.7304 16.4522L23.0609 16.6957L22.513 17.1217L22.087 17.6087L21.7826 18.2783L21.7217 18.5826V19.313L21.9652 20.0435L22.4522 20.713L22.9391 21.0783L23.4261 21.3217L23.9739 21.4435H24.4609L25.1304 21.2609L25.6783 20.9565L25.9826 20.713L26.3478 20.2261L26.5913 19.7391L26.713 19.313V18.5826L26.5304 17.9739L26.1652 17.3652L25.7391 16.9391L25.2522 16.6348L24.7043 16.4522H23.7304Z" fill="white"/>
</svg>
