<svg class="svg-icon" style="width: 1em;height: 1em;vertical-align: middle;fill: currentColor;overflow: hidden;" viewBox="0 0 1024 1024" version="1.1" xmlns="http://www.w3.org/2000/svg"><path d="M604.816 336h-304v-96l-192 192 192 192v-96h304z" fill="#40C4FF" /><path d="M300.816 632a8.064 8.064 0 0 1-5.664-2.336l-192-192a8 8 0 0 1 0-11.312l192-192a8 8 0 1 1 13.664 5.664v88h296a8 8 0 0 1 8 8v192a8 8 0 0 1-8 8h-296V624a8 8 0 0 1-8 8zM120.128 432l172.688 172.688V528a8 8 0 0 1 8-8h296v-176h-296a8 8 0 0 1-8-8v-76.688L120.128 432z" fill="#263238" /><path d="M876.816 704l-192-192v96h-304v192h304v96z" fill="#FF5252" /><path d="M684.816 904a8 8 0 0 1-8-8v-88h-296a8 8 0 0 1-8-8V608a8 8 0 0 1 8-8h296V512a8 8 0 0 1 13.664-5.664l192 192a8 8 0 0 1 0 11.312l-192 192a8 8 0 0 1-5.664 2.352z m-296-112h296a8 8 0 0 1 8 8v76.688L865.504 704 692.816 531.312V608a8 8 0 0 1-8 8h-296v176zM896 440H736a8 8 0 0 1 0-16h160a8 8 0 0 1 0 16zM944 440h-16a8 8 0 0 1 0-16h16a8 8 0 0 1 0 16zM288 731.168H128a8 8 0 0 1 0-16h160a8 8 0 0 1 0 16zM96 731.184H80a8 8 0 0 1 0-16h16a8 8 0 0 1 0 16zM668.816 168h-64a8 8 0 0 1 0-16h64a8 8 0 0 1 0 16z" fill="#263238" /><path d="M636.816 200a8 8 0 0 1-8-8V128a8 8 0 0 1 16 0v64a8 8 0 0 1-8 8z" fill="#263238" /><path d="M764.816 256h-64a8 8 0 0 1 0-16h64a8 8 0 0 1 0 16z" fill="#263238" /><path d="M732.816 288a8 8 0 0 1-8-8v-64a8 8 0 0 1 16 0v64a8 8 0 0 1-8 8z" fill="#263238" /></svg>