<svg width="152" height="34" viewBox="0 0 152 34" fill="none" xmlns="http://www.w3.org/2000/svg">
<path d="M0 32H152V34H0V32Z" fill="#AD826E"/>
<path d="M5.364 5.148C6.528 5.148 7.488 5.292 8.244 5.58C9 5.856 9.564 6.282 9.936 6.858C10.308 7.422 10.494 8.136 10.494 9C10.494 9.588 10.38 10.104 10.152 10.548C9.936 10.98 9.642 11.352 9.27 11.664C8.91 11.964 8.52 12.21 8.1 12.402L11.88 18H8.856L5.796 13.068H4.338V18H1.62V5.148H5.364ZM5.166 7.38H4.338V10.854H5.22C5.82 10.854 6.306 10.788 6.678 10.656C7.05 10.524 7.32 10.326 7.488 10.062C7.656 9.786 7.74 9.456 7.74 9.072C7.74 8.664 7.644 8.34 7.452 8.1C7.272 7.848 6.99 7.668 6.606 7.56C6.234 7.44 5.754 7.38 5.166 7.38ZM17.3368 7.992C18.2488 7.992 19.0288 8.166 19.6768 8.514C20.3368 8.862 20.8468 9.366 21.2068 10.026C21.5668 10.686 21.7468 11.496 21.7468 12.456V13.752H15.4108C15.4348 14.508 15.6568 15.102 16.0768 15.534C16.5088 15.966 17.1028 16.182 17.8588 16.182C18.4948 16.182 19.0708 16.122 19.5868 16.002C20.1028 15.87 20.6368 15.672 21.1888 15.408V17.478C20.7088 17.718 20.1988 17.892 19.6588 18C19.1308 18.12 18.4888 18.18 17.7328 18.18C16.7488 18.18 15.8788 18 15.1228 17.64C14.3668 17.268 13.7728 16.71 13.3408 15.966C12.9088 15.222 12.6928 14.286 12.6928 13.158C12.6928 12.006 12.8848 11.052 13.2688 10.296C13.6648 9.528 14.2108 8.952 14.9068 8.568C15.6028 8.184 16.4128 7.992 17.3368 7.992ZM17.3548 9.9C16.8388 9.9 16.4068 10.068 16.0588 10.404C15.7228 10.74 15.5248 11.262 15.4648 11.97H19.2268C19.2268 11.574 19.1548 11.22 19.0108 10.908C18.8788 10.596 18.6748 10.35 18.3988 10.17C18.1228 9.99 17.7748 9.9 17.3548 9.9ZM27.9536 7.974C29.2736 7.974 30.2816 8.262 30.9776 8.838C31.6856 9.402 32.0396 10.272 32.0396 11.448V18H30.1676L29.6456 16.668H29.5736C29.2976 17.016 29.0096 17.304 28.7096 17.532C28.4216 17.76 28.0856 17.922 27.7016 18.018C27.3296 18.126 26.8676 18.18 26.3156 18.18C25.7396 18.18 25.2176 18.072 24.7496 17.856C24.2936 17.628 23.9336 17.286 23.6696 16.83C23.4056 16.362 23.2736 15.774 23.2736 15.066C23.2736 14.022 23.6396 13.254 24.3716 12.762C25.1036 12.258 26.2016 11.982 27.6656 11.934L29.3756 11.88V11.448C29.3756 10.932 29.2376 10.554 28.9616 10.314C28.6976 10.074 28.3256 9.954 27.8456 9.954C27.3656 9.954 26.8976 10.026 26.4416 10.17C25.9856 10.302 25.5296 10.47 25.0736 10.674L24.1916 8.856C24.7196 8.58 25.3016 8.364 25.9376 8.208C26.5856 8.052 27.2576 7.974 27.9536 7.974ZM28.3316 13.482C27.4676 13.506 26.8676 13.662 26.5316 13.95C26.1956 14.238 26.0276 14.616 26.0276 15.084C26.0276 15.492 26.1476 15.786 26.3876 15.966C26.6276 16.134 26.9396 16.218 27.3236 16.218C27.8996 16.218 28.3856 16.05 28.7816 15.714C29.1776 15.366 29.3756 14.88 29.3756 14.256V13.446L28.3316 13.482ZM37.8989 18.18C36.8069 18.18 35.9129 17.754 35.2169 16.902C34.5329 16.038 34.1909 14.772 34.1909 13.104C34.1909 11.424 34.5389 10.152 35.2349 9.288C35.9309 8.424 36.8429 7.992 37.9709 7.992C38.4389 7.992 38.8529 8.058 39.2129 8.19C39.5729 8.31 39.8789 8.478 40.1309 8.694C40.3949 8.91 40.6169 9.156 40.7969 9.432H40.8869C40.8509 9.24 40.8089 8.964 40.7609 8.604C40.7129 8.232 40.6889 7.854 40.6889 7.47V4.32H43.3709V18H41.3189L40.7969 16.722H40.6889C40.5209 16.986 40.3049 17.232 40.0409 17.46C39.7889 17.676 39.4889 17.85 39.1409 17.982C38.7929 18.114 38.3789 18.18 37.8989 18.18ZM38.8349 16.038C39.5789 16.038 40.1009 15.822 40.4009 15.39C40.7009 14.946 40.8569 14.286 40.8689 13.41V13.122C40.8689 12.162 40.7189 11.43 40.4189 10.926C40.1309 10.422 39.5909 10.17 38.7989 10.17C38.2109 10.17 37.7489 10.428 37.4129 10.944C37.0769 11.448 36.9089 12.18 36.9089 13.14C36.9089 14.1 37.0769 14.826 37.4129 15.318C37.7489 15.798 38.2229 16.038 38.8349 16.038ZM48.8575 8.172V18H46.1755V8.172H48.8575ZM47.5255 4.32C47.9215 4.32 48.2635 4.416 48.5515 4.608C48.8395 4.788 48.9835 5.13 48.9835 5.634C48.9835 6.126 48.8395 6.468 48.5515 6.66C48.2635 6.852 47.9215 6.948 47.5255 6.948C47.1175 6.948 46.7695 6.852 46.4815 6.66C46.2055 6.468 46.0675 6.126 46.0675 5.634C46.0675 5.13 46.2055 4.788 46.4815 4.608C46.7695 4.416 47.1175 4.32 47.5255 4.32ZM57.2399 7.992C58.2959 7.992 59.1419 8.28 59.7779 8.856C60.4139 9.42 60.7319 10.332 60.7319 11.592V18H58.0499V12.258C58.0499 11.55 57.9239 11.022 57.6719 10.674C57.4199 10.314 57.0179 10.134 56.4659 10.134C55.6499 10.134 55.0919 10.416 54.7919 10.98C54.4919 11.532 54.3419 12.33 54.3419 13.374V18H51.6599V8.172H53.7119L54.0719 9.432H54.2159C54.4319 9.096 54.6959 8.826 55.0079 8.622C55.3199 8.406 55.6679 8.25 56.0519 8.154C56.4359 8.046 56.8319 7.992 57.2399 7.992ZM66.6759 7.992C67.2759 7.992 67.8159 8.112 68.2959 8.352C68.7759 8.592 69.1839 8.952 69.5199 9.432H69.5919L69.8079 8.172H72.0759V18.018C72.0759 18.954 71.8899 19.74 71.5179 20.376C71.1579 21.012 70.6119 21.492 69.8799 21.816C69.1479 22.152 68.2419 22.32 67.1619 22.32C66.4659 22.32 65.8179 22.278 65.2179 22.194C64.6299 22.11 64.0539 21.96 63.4899 21.744V19.602C63.8979 19.77 64.3059 19.908 64.7139 20.016C65.1339 20.136 65.5599 20.22 65.9919 20.268C66.4359 20.328 66.8799 20.358 67.3239 20.358C68.0199 20.358 68.5359 20.172 68.8719 19.8C69.2199 19.428 69.3939 18.87 69.3939 18.126V17.928C69.3939 17.724 69.3999 17.514 69.4119 17.298C69.4359 17.082 69.4539 16.89 69.4659 16.722H69.3939C69.0579 17.238 68.6559 17.61 68.1879 17.838C67.7199 18.066 67.1919 18.18 66.6039 18.18C65.4399 18.18 64.5279 17.736 63.8679 16.848C63.2199 15.948 62.8959 14.7 62.8959 13.104C62.8959 12.024 63.0459 11.106 63.3459 10.35C63.6459 9.582 64.0779 9 64.6419 8.604C65.2179 8.196 65.8959 7.992 66.6759 7.992ZM67.5219 10.17C67.1019 10.17 66.7479 10.284 66.4599 10.512C66.1839 10.728 65.9739 11.058 65.8299 11.502C65.6979 11.934 65.6319 12.48 65.6319 13.14C65.6319 14.124 65.7879 14.862 66.0999 15.354C66.4119 15.834 66.8979 16.074 67.5579 16.074C67.9059 16.074 68.2059 16.032 68.4579 15.948C68.7099 15.852 68.9139 15.702 69.0699 15.498C69.2379 15.282 69.3639 15.006 69.4479 14.67C69.5319 14.334 69.5739 13.926 69.5739 13.446V13.122C69.5739 12.414 69.5019 11.844 69.3579 11.412C69.2139 10.98 68.9919 10.668 68.6919 10.476C68.3919 10.272 68.0019 10.17 67.5219 10.17Z" fill="#AD826E"/>
</svg>
