<svg width="20" height="20" viewBox="0 0 20 20" fill="none" xmlns="http://www.w3.org/2000/svg">
<path d="M15.6485 4.35C14.908 3.60485 14.0271 3.01356 13.0568 2.61023C12.0865 2.2069 11.0459 1.99951 9.995 2C5.57223 2 2 5.58 2 10C2 14.42 5.57223 18 9.995 18C13.7273 18 16.8393 15.45 17.7298 12H15.6485C15.2363 13.1695 14.4711 14.1824 13.4585 14.8988C12.4459 15.6153 11.2357 16 9.995 16C6.68293 16 3.99124 13.31 3.99124 10C3.99124 6.69 6.68293 4 9.995 4C11.656 4 13.137 4.69 14.2176 5.78L10.9956 9H18V2L15.6485 4.35Z" fill="#996CFE"/>
</svg>
