<svg width="84" height="84" viewBox="0 0 84 84" fill="none" xmlns="http://www.w3.org/2000/svg">
<g clip-path="url(#clip0_5597_5221)">
<rect width="84" height="84" rx="12" fill="#AD826E"/>
<path d="M27.996 29.724C30.0133 29.724 31.668 29.9847 32.96 30.506C34.2747 31.0047 35.2493 31.764 35.884 32.784C36.5187 33.804 36.836 35.0847 36.836 36.626C36.836 37.918 36.598 38.9947 36.122 39.856C35.646 40.7173 35.034 41.4087 34.286 41.93C33.5607 42.4287 32.79 42.8253 31.974 43.12L38.638 54H35.068L29.186 43.97H24.358V54H21.298V29.724H27.996ZM27.826 32.376H24.358V41.386H27.996C29.3107 41.386 30.3873 41.216 31.226 40.876C32.0647 40.5133 32.6767 39.992 33.062 39.312C33.47 38.632 33.674 37.782 33.674 36.762C33.674 35.6967 33.4587 34.8467 33.028 34.212C32.62 33.5773 31.9853 33.1127 31.124 32.818C30.2627 32.5233 29.1633 32.376 27.826 32.376ZM63.6304 41.828C63.6304 43.7093 63.3924 45.4207 62.9164 46.962C62.4404 48.4807 61.7264 49.7953 60.7744 50.906C59.8451 52.0167 58.6777 52.8667 57.2724 53.456C55.8897 54.0453 54.2804 54.34 52.4444 54.34C50.5404 54.34 48.8857 54.0453 47.4804 53.456C46.0751 52.844 44.9077 51.994 43.9784 50.906C43.0491 49.7953 42.3577 48.4693 41.9044 46.928C41.4511 45.3867 41.2244 43.6753 41.2244 41.794C41.2244 39.3007 41.6324 37.1247 42.4484 35.266C43.2644 33.4073 44.4997 31.9567 46.1544 30.914C47.8317 29.8713 49.9397 29.35 52.4784 29.35C54.9037 29.35 56.9437 29.8713 58.5984 30.914C60.2531 31.934 61.4997 33.3847 62.3384 35.266C63.1997 37.1247 63.6304 39.312 63.6304 41.828ZM44.4544 41.828C44.4544 43.868 44.7377 45.6247 45.3044 47.098C45.8711 48.5713 46.7437 49.7047 47.9224 50.498C49.1237 51.2913 50.6311 51.688 52.4444 51.688C54.2804 51.688 55.7764 51.2913 56.9324 50.498C58.1111 49.7047 58.9837 48.5713 59.5504 47.098C60.1171 45.6247 60.4004 43.868 60.4004 41.828C60.4004 38.768 59.7657 36.3767 58.4964 34.654C57.2271 32.9087 55.2211 32.036 52.4784 32.036C50.6424 32.036 49.1237 32.4327 47.9224 33.226C46.7437 33.9967 45.8711 35.1187 45.3044 36.592C44.7377 38.0427 44.4544 39.788 44.4544 41.828Z" fill="white"/>
</g>
<defs>
<clipPath id="clip0_5597_5221">
<rect width="84" height="84" fill="white"/>
</clipPath>
</defs>
</svg>
