<svg width="84" height="84" viewBox="0 0 84 84" fill="none" xmlns="http://www.w3.org/2000/svg">
<g clip-path="url(#clip0_5592_1067)">
<path fill-rule="evenodd" clip-rule="evenodd" d="M80.2666 3.7334V14.9307H78.1746V3.7334H80.2666Z" fill="#49D7F2"/>
<path fill-rule="evenodd" clip-rule="evenodd" d="M70.2264 12.0496L69.3753 14.9336H67.2L70.8491 3.73633H73.367L76.9999 14.9336H74.713L73.8592 12.0552H70.2264V12.0496ZM73.4299 10.4036L72.0975 5.87598H72.005L70.6726 10.4036H73.4299Z" fill="#49D7F2"/>
<path d="M0 10.5V60.375V74.1333C0 79.5825 4.41747 84 9.86668 84H71.8846C75.0978 84 78.1794 82.8938 80.4515 80.9246C82.7236 78.9555 84 76.2848 84 73.5V18.6667H77.9423H66.7556C64.9392 18.6667 63.4667 17.1942 63.4667 15.3778V0H12.1154C8.90218 0 5.82059 1.10625 3.54852 3.07538C1.27644 5.04451 0 7.71523 0 10.5Z" fill="#49D7F2"/>
<path d="M27.53 54L24.606 46.486H14.984L12.094 54H9L18.486 29.622H21.24L30.692 54H27.53ZM20.968 36.422C20.9 36.2407 20.7867 35.912 20.628 35.436C20.4693 34.96 20.3107 34.4727 20.152 33.974C20.016 33.4527 19.9027 33.056 19.812 32.784C19.6987 33.2373 19.574 33.702 19.438 34.178C19.3247 34.6313 19.2 35.0507 19.064 35.436C18.9507 35.8213 18.8487 36.15 18.758 36.422L16.004 43.766H23.688L20.968 36.422ZM47.7828 47.506C47.7828 48.9567 47.4315 50.192 46.7288 51.212C46.0262 52.2093 45.0175 52.98 43.7028 53.524C42.4108 54.068 40.8808 54.34 39.1128 54.34C38.2062 54.34 37.3335 54.2947 36.4948 54.204C35.6788 54.1133 34.9308 53.9887 34.2508 53.83C33.5708 53.6487 32.9702 53.4333 32.4488 53.184V50.26C33.2648 50.6227 34.2735 50.9513 35.4748 51.246C36.6988 51.5407 37.9568 51.688 39.2488 51.688C40.4502 51.688 41.4588 51.5293 42.2748 51.212C43.0908 50.8947 43.7028 50.4413 44.1108 49.852C44.5188 49.2627 44.7228 48.5713 44.7228 47.778C44.7228 46.9847 44.5528 46.316 44.2128 45.772C43.8728 45.228 43.2835 44.7293 42.4448 44.276C41.6288 43.8 40.4842 43.3013 39.0108 42.78C37.9682 42.3947 37.0502 41.9867 36.2568 41.556C35.4862 41.1027 34.8402 40.5927 34.3188 40.026C33.7975 39.4593 33.4008 38.8133 33.1288 38.088C32.8795 37.3627 32.7548 36.524 32.7548 35.572C32.7548 34.28 33.0835 33.1807 33.7408 32.274C34.3982 31.3447 35.3048 30.6307 36.4608 30.132C37.6395 29.6333 38.9882 29.384 40.5068 29.384C41.8442 29.384 43.0682 29.5087 44.1788 29.758C45.2895 30.0073 46.2982 30.336 47.2048 30.744L46.2528 33.362C45.4142 32.9993 44.4962 32.6933 43.4988 32.444C42.5242 32.1947 41.5042 32.07 40.4388 32.07C39.4188 32.07 38.5688 32.2173 37.8888 32.512C37.2088 32.8067 36.6988 33.226 36.3588 33.77C36.0188 34.2913 35.8488 34.9033 35.8488 35.606C35.8488 36.422 36.0188 37.102 36.3588 37.646C36.6988 38.19 37.2542 38.6773 38.0248 39.108C38.7955 39.5387 39.8382 40.0033 41.1528 40.502C42.5808 41.0233 43.7822 41.59 44.7568 42.202C45.7542 42.7913 46.5022 43.5053 47.0008 44.344C47.5222 45.1827 47.7828 46.2367 47.7828 47.506ZM73.855 41.828C73.855 43.8 73.583 45.5907 73.039 47.2C72.5177 48.8093 71.7357 50.1693 70.693 51.28C69.6503 52.3907 68.347 53.2067 66.783 53.728L72.597 59.78H68.211L63.519 54.306C63.383 54.306 63.2357 54.306 63.077 54.306C62.941 54.3287 62.805 54.34 62.669 54.34C60.765 54.34 59.1103 54.0453 57.705 53.456C56.2997 52.844 55.1323 51.994 54.203 50.906C53.2737 49.7953 52.5823 48.4693 52.129 46.928C51.6757 45.3867 51.449 43.6753 51.449 41.794C51.449 39.3007 51.857 37.1247 52.673 35.266C53.489 33.4073 54.7243 31.9567 56.379 30.914C58.0563 29.8713 60.1643 29.35 62.703 29.35C65.1283 29.35 67.1683 29.8713 68.823 30.914C70.4777 31.934 71.7243 33.3847 72.563 35.266C73.4243 37.1247 73.855 39.312 73.855 41.828ZM54.679 41.828C54.679 43.868 54.9623 45.6247 55.529 47.098C56.0957 48.5713 56.9683 49.7047 58.147 50.498C59.3483 51.2913 60.8557 51.688 62.669 51.688C64.505 51.688 66.001 51.2913 67.157 50.498C68.3357 49.7047 69.2083 48.5713 69.775 47.098C70.3417 45.6247 70.625 43.868 70.625 41.828C70.625 38.768 69.9903 36.3767 68.721 34.654C67.4517 32.9087 65.4457 32.036 62.703 32.036C60.867 32.036 59.3483 32.4327 58.147 33.226C56.9683 33.9967 56.0957 35.1187 55.529 36.592C54.9623 38.0427 54.679 39.788 54.679 41.828Z" fill="white"/>
</g>
<defs>
<clipPath id="clip0_5592_1067">
<rect width="84" height="84" fill="white"/>
</clipPath>
</defs>
</svg>
