<svg width="84" height="84" viewBox="0 0 84 84" fill="none" xmlns="http://www.w3.org/2000/svg">
<g clip-path="url(#clip0_5597_2838)">
<path fill-rule="evenodd" clip-rule="evenodd" d="M80.2666 3.7334V14.9307H78.1746V3.7334H80.2666Z" fill="#49D7F2"/>
<path fill-rule="evenodd" clip-rule="evenodd" d="M70.2264 12.0491L69.3753 14.9331H67.2L70.8491 3.73584H73.367L76.9999 14.9331H74.713L73.8592 12.0547H70.2264V12.0491ZM73.4299 10.4036L72.0975 5.87598H72.005L70.6726 10.4036H73.4299Z" fill="#49D7F2"/>
<path d="M0 10.5V60.375V74.1333C0 79.5825 4.41747 84 9.86668 84H71.8846C75.0978 84 78.1794 82.8938 80.4515 80.9246C82.7236 78.9555 84 76.2848 84 73.5V18.6667H77.9423H66.7556C64.9392 18.6667 63.4667 17.1942 63.4667 15.3778V0H12.1154C8.90218 0 5.82059 1.10625 3.54852 3.07538C1.27644 5.04451 0 7.71523 0 10.5Z" fill="#49D7F2"/>
<path d="M31.996 29.724C34.0133 29.724 35.668 29.9847 36.96 30.506C38.2747 31.0047 39.2493 31.764 39.884 32.784C40.5187 33.804 40.836 35.0847 40.836 36.626C40.836 37.918 40.598 38.9947 40.122 39.856C39.646 40.7173 39.034 41.4087 38.286 41.93C37.5607 42.4287 36.79 42.8253 35.974 43.12L42.638 54H39.068L33.186 43.97H28.358V54H25.298V29.724H31.996ZM31.826 32.376H28.358V41.386H31.996C33.3107 41.386 34.3873 41.216 35.226 40.876C36.0647 40.5133 36.6767 39.992 37.062 39.312C37.47 38.632 37.674 37.782 37.674 36.762C37.674 35.6967 37.4587 34.8467 37.028 34.212C36.62 33.5773 35.9853 33.1127 35.124 32.818C34.2627 32.5233 33.1633 32.376 31.826 32.376ZM60.2184 47.506C60.2184 48.9567 59.8671 50.192 59.1644 51.212C58.4617 52.2093 57.4531 52.98 56.1384 53.524C54.8464 54.068 53.3164 54.34 51.5484 54.34C50.6417 54.34 49.7691 54.2947 48.9304 54.204C48.1144 54.1133 47.3664 53.9887 46.6864 53.83C46.0064 53.6487 45.4057 53.4333 44.8844 53.184V50.26C45.7004 50.6227 46.7091 50.9513 47.9104 51.246C49.1344 51.5407 50.3924 51.688 51.6844 51.688C52.8857 51.688 53.8944 51.5293 54.7104 51.212C55.5264 50.8947 56.1384 50.4413 56.5464 49.852C56.9544 49.2627 57.1584 48.5713 57.1584 47.778C57.1584 46.9847 56.9884 46.316 56.6484 45.772C56.3084 45.228 55.7191 44.7293 54.8804 44.276C54.0644 43.8 52.9197 43.3013 51.4464 42.78C50.4037 42.3947 49.4857 41.9867 48.6924 41.556C47.9217 41.1027 47.2757 40.5927 46.7544 40.026C46.2331 39.4593 45.8364 38.8133 45.5644 38.088C45.3151 37.3627 45.1904 36.524 45.1904 35.572C45.1904 34.28 45.5191 33.1807 46.1764 32.274C46.8337 31.3447 47.7404 30.6307 48.8964 30.132C50.0751 29.6333 51.4237 29.384 52.9424 29.384C54.2797 29.384 55.5037 29.5087 56.6144 29.758C57.7251 30.0073 58.7337 30.336 59.6404 30.744L58.6884 33.362C57.8497 32.9993 56.9317 32.6933 55.9344 32.444C54.9597 32.1947 53.9397 32.07 52.8744 32.07C51.8544 32.07 51.0044 32.2173 50.3244 32.512C49.6444 32.8067 49.1344 33.226 48.7944 33.77C48.4544 34.2913 48.2844 34.9033 48.2844 35.606C48.2844 36.422 48.4544 37.102 48.7944 37.646C49.1344 38.19 49.6897 38.6773 50.4604 39.108C51.2311 39.5387 52.2737 40.0033 53.5884 40.502C55.0164 41.0233 56.2177 41.59 57.1924 42.202C58.1897 42.7913 58.9377 43.5053 59.4364 44.344C59.9577 45.1827 60.2184 46.2367 60.2184 47.506Z" fill="white"/>
</g>
<defs>
<clipPath id="clip0_5597_2838">
<rect width="84" height="84" fill="white"/>
</clipPath>
</defs>
</svg>
