<svg width="84" height="84" viewBox="0 0 84 84" fill="none" xmlns="http://www.w3.org/2000/svg">
<g clip-path="url(#clip0_5735_205)">
<path fill-rule="evenodd" clip-rule="evenodd" d="M80.2668 3.7334V14.9307H78.1748V3.7334H80.2668Z" fill="#49D7F2"/>
<path fill-rule="evenodd" clip-rule="evenodd" d="M70.2266 12.0496L69.3755 14.9336H67.2002L70.8493 3.73633H73.3673L77.0001 14.9336H74.7133L73.8595 12.0552H70.2266V12.0496ZM73.4301 10.4036L72.0977 5.87598H72.0052L70.6729 10.4036H73.4301Z" fill="#49D7F2"/>
<path d="M0 10.5V60.375V74.1333C0 79.5825 4.41747 84 9.86668 84H71.8846C75.0978 84 78.1794 82.8938 80.4515 80.9246C82.7236 78.9555 84 76.2848 84 73.5V18.6667H77.9423H66.7556C64.9392 18.6667 63.4667 17.1942 63.4667 15.3778V0H12.1154C8.90218 0 5.82059 1.10625 3.54852 3.07538C1.27644 5.04451 0 7.71523 0 10.5Z" fill="#49D7F2"/>
<path d="M21.996 29.724C24.0133 29.724 25.668 29.9847 26.96 30.506C28.2747 31.0047 29.2493 31.764 29.884 32.784C30.5187 33.804 30.836 35.0847 30.836 36.626C30.836 37.918 30.598 38.9947 30.122 39.856C29.646 40.7173 29.034 41.4087 28.286 41.93C27.5607 42.4287 26.79 42.8253 25.974 43.12L32.638 54H29.068L23.186 43.97H18.358V54H15.298V29.724H21.996ZM21.826 32.376H18.358V41.386H21.996C23.3107 41.386 24.3873 41.216 25.226 40.876C26.0647 40.5133 26.6767 39.992 27.062 39.312C27.47 38.632 27.674 37.782 27.674 36.762C27.674 35.6967 27.4587 34.8467 27.028 34.212C26.62 33.5773 25.9853 33.1127 25.124 32.818C24.2627 32.5233 23.1633 32.376 21.826 32.376ZM44.1324 54H41.0724V32.41H33.4904V29.724H51.6804V32.41H44.1324V54ZM69.111 47.506C69.111 48.9567 68.7596 50.192 68.057 51.212C67.3543 52.2093 66.3456 52.98 65.031 53.524C63.739 54.068 62.209 54.34 60.441 54.34C59.5343 54.34 58.6616 54.2947 57.823 54.204C57.007 54.1133 56.259 53.9887 55.579 53.83C54.899 53.6487 54.2983 53.4333 53.777 53.184V50.26C54.593 50.6227 55.6016 50.9513 56.803 51.246C58.027 51.5407 59.285 51.688 60.577 51.688C61.7783 51.688 62.787 51.5293 63.603 51.212C64.419 50.8947 65.031 50.4413 65.439 49.852C65.847 49.2627 66.051 48.5713 66.051 47.778C66.051 46.9847 65.881 46.316 65.541 45.772C65.201 45.228 64.6116 44.7293 63.773 44.276C62.957 43.8 61.8123 43.3013 60.339 42.78C59.2963 42.3947 58.3783 41.9867 57.585 41.556C56.8143 41.1027 56.1683 40.5927 55.647 40.026C55.1256 39.4593 54.729 38.8133 54.457 38.088C54.2076 37.3627 54.083 36.524 54.083 35.572C54.083 34.28 54.4116 33.1807 55.069 32.274C55.7263 31.3447 56.633 30.6307 57.789 30.132C58.9676 29.6333 60.3163 29.384 61.835 29.384C63.1723 29.384 64.3963 29.5087 65.507 29.758C66.6176 30.0073 67.6263 30.336 68.533 30.744L67.581 33.362C66.7423 32.9993 65.8243 32.6933 64.827 32.444C63.8523 32.1947 62.8323 32.07 61.767 32.07C60.747 32.07 59.897 32.2173 59.217 32.512C58.537 32.8067 58.027 33.226 57.687 33.77C57.347 34.2913 57.177 34.9033 57.177 35.606C57.177 36.422 57.347 37.102 57.687 37.646C58.027 38.19 58.5823 38.6773 59.353 39.108C60.1236 39.5387 61.1663 40.0033 62.481 40.502C63.909 41.0233 65.1103 41.59 66.085 42.202C67.0823 42.7913 67.8303 43.5053 68.329 44.344C68.8503 45.1827 69.111 46.2367 69.111 47.506Z" fill="white"/>
</g>
<defs>
<clipPath id="clip0_5735_205">
<rect width="84" height="84" fill="white"/>
</clipPath>
</defs>
</svg>
