<svg width="20" height="20" viewBox="0 0 20 20" fill="none" xmlns="http://www.w3.org/2000/svg">
<g opacity="0.65">
<mask id="mask0_7410_515" style="mask-type:alpha" maskUnits="userSpaceOnUse" x="0" y="0" width="20" height="20">
<rect width="20" height="20" fill="#D9D9D9"/>
</mask>
<g mask="url(#mask0_7410_515)">
<path d="M9.99633 18C7.85838 18 6.03377 17.3012 4.52252 15.9037C3.01127 14.5063 2.17188 12.7854 2.00434 10.7413C1.98355 10.5609 2.03745 10.4129 2.16603 10.2973C2.29462 10.1817 2.45158 10.1271 2.63694 10.1334C2.81136 10.1398 2.96385 10.1963 3.09439 10.303C3.22491 10.4097 3.29732 10.5501 3.3116 10.7241C3.47788 12.4037 4.19487 13.8215 5.46258 14.9776C6.73027 16.1337 8.24152 16.7118 9.99633 16.7118C11.8368 16.7118 13.4114 16.0718 14.72 14.7918C16.0287 13.5118 16.683 11.9717 16.683 10.1715C16.683 8.3713 16.0287 6.83119 14.72 5.55122C13.4114 4.27124 11.8368 3.63125 9.99633 3.63125C9.00789 3.63125 8.09276 3.81883 7.25093 4.19399C6.40912 4.56915 5.68182 5.08539 5.06903 5.74272H6.98425C7.17082 5.74272 7.32721 5.80398 7.45343 5.92649C7.57965 6.04901 7.64276 6.20082 7.64276 6.38193C7.64276 6.56304 7.57965 6.71648 7.45343 6.84225C7.32721 6.96804 7.17082 7.03093 6.98425 7.03093H3.31363C3.08289 7.03093 2.88948 6.95458 2.73339 6.8019C2.5773 6.64922 2.49925 6.46004 2.49925 6.23435V2.64412C2.49925 2.46162 2.56188 2.30864 2.68714 2.18518C2.81239 2.06173 2.9676 2 3.15277 2C3.33794 2 3.49481 2.06173 3.6234 2.18518C3.75198 2.30864 3.81627 2.46162 3.81627 2.64412V5.23966C4.55403 4.35671 5.45415 3.6532 6.51664 3.12914C7.57912 2.60507 8.73902 2.34304 9.99633 2.34304C11.1074 2.34304 12.148 2.54842 13.1184 2.95916C14.0887 3.3699 14.9349 3.92842 15.657 4.63474C16.3792 5.34107 16.9502 6.16871 17.3701 7.11766C17.79 8.06661 18 9.08438 18 10.171C18 11.2576 17.79 12.2755 17.3701 13.2248C16.9502 14.1742 16.3792 15.002 15.657 15.7083C14.9349 16.4146 14.0887 16.9731 13.1184 17.3839C12.148 17.7946 11.1074 18 9.99633 18ZM10.6841 9.52359L13.2169 12.001C13.3572 12.1382 13.4247 12.2859 13.4195 12.444C13.4143 12.6022 13.3384 12.7531 13.1916 12.8966C13.0448 13.0402 12.888 13.112 12.7211 13.112C12.5542 13.112 12.3973 13.0402 12.2506 12.8966L9.62373 10.3273C9.54092 10.2463 9.47744 10.1578 9.43329 10.0618C9.38911 9.96588 9.36703 9.8667 9.36703 9.76432V6.05103C9.36703 5.87081 9.43144 5.71975 9.56026 5.59784C9.68907 5.47592 9.84429 5.41496 10.0259 5.41496C10.2075 5.41496 10.3626 5.47669 10.4912 5.60015C10.6198 5.7236 10.6841 5.87657 10.6841 6.05906V9.52359Z" fill="black"/>
</g>
</g>
</svg>
