<svg width="20" height="20" viewBox="0 0 20 20" fill="none" xmlns="http://www.w3.org/2000/svg">
<g opacity="0.65">
<path d="M7.8722 12.8311C7.59489 12.6255 7.20347 12.6837 6.99792 12.961C6.79237 13.2383 6.85054 13.6297 7.12784 13.8353C7.93819 14.4359 8.92921 14.7915 10 14.7915C11.0708 14.7915 12.0619 14.4359 12.8722 13.8353C13.1495 13.6297 13.2077 13.2383 13.0021 12.961C12.7966 12.6837 12.4051 12.6255 12.1278 12.8311C11.5209 13.281 10.7883 13.5415 10 13.5415C9.21177 13.5415 8.47915 13.281 7.8722 12.8311Z" fill="black"/>
<path fill-rule="evenodd" clip-rule="evenodd" d="M10 1.0415C9.40992 1.0415 8.87379 1.21052 8.29215 1.49337C7.72989 1.76679 7.08037 2.16991 6.26907 2.67344L4.54692 3.74225C3.77926 4.21868 3.16456 4.60017 2.69077 4.96301C2.20014 5.33875 1.82331 5.72141 1.55111 6.2187C1.27948 6.71494 1.15716 7.24296 1.09851 7.86709C1.04168 8.47196 1.04168 9.2116 1.04169 10.1392V11.4831C1.04168 13.0696 1.04167 14.322 1.16894 15.3012C1.2995 16.3056 1.57382 17.1166 2.19365 17.7577C2.81634 18.4018 3.60873 18.6896 4.58969 18.826C5.54043 18.9582 6.75465 18.9582 8.28489 18.9582H11.7151C13.2453 18.9582 14.4596 18.9582 15.4103 18.826C16.3913 18.6896 17.1837 18.4018 17.8064 17.7577C18.4262 17.1166 18.7005 16.3056 18.8311 15.3012C18.9584 14.322 18.9584 13.0696 18.9584 11.4831V10.1392C18.9584 9.21162 18.9584 8.47194 18.9015 7.86709C18.8429 7.24296 18.7206 6.71494 18.4489 6.2187C18.1767 5.72141 17.7999 5.33875 17.3093 4.96301C16.8355 4.60017 16.2208 4.21869 15.4531 3.74227L13.731 2.67343C12.9197 2.16991 12.2701 1.76679 11.7079 1.49337C11.1262 1.21052 10.5901 1.0415 10 1.0415ZM6.89963 3.75327C7.74609 3.22793 8.34127 2.85945 8.83881 2.6175C9.32354 2.38178 9.66684 2.2915 10 2.2915C10.3332 2.2915 10.6765 2.38178 11.1612 2.6175C11.6588 2.85945 12.2539 3.22793 13.1004 3.75327L14.7671 4.78765C15.5678 5.28458 16.1299 5.63429 16.5493 5.95542C16.9572 6.26787 17.192 6.52572 17.3524 6.81888C17.5135 7.11308 17.6075 7.45705 17.657 7.98403C17.7077 8.52366 17.7084 9.20468 17.7084 10.1698V11.4373C17.7084 13.0798 17.7071 14.2508 17.5915 15.1401C17.478 16.0134 17.2642 16.5201 16.9077 16.8889C16.5541 17.2547 16.0726 17.4718 15.2382 17.5879C14.3835 17.7068 13.2563 17.7082 11.6667 17.7082H8.33335C6.74375 17.7082 5.61655 17.7068 4.76187 17.5879C3.9274 17.4718 3.44597 17.2547 3.09234 16.8889C2.73586 16.5201 2.52203 16.0134 2.40851 15.1401C2.29293 14.2508 2.29169 13.0798 2.29169 11.4373V10.1698C2.29169 9.20468 2.29232 8.52366 2.34303 7.98403C2.39255 7.45705 2.48656 7.11308 2.6476 6.81888C2.80807 6.52572 3.04279 6.26787 3.45079 5.95542C3.8701 5.6343 4.43227 5.28458 5.23296 4.78765L6.89963 3.75327Z" fill="black"/>
</g>
</svg>
