<svg width="18" height="16" viewBox="0 0 18 16" fill="none" xmlns="http://www.w3.org/2000/svg">
<g clip-path="url(#clip0_7410_537)">
<path d="M15.8377 11.9285H14.5312C14.442 11.9285 14.3584 11.966 14.3026 12.032C14.1725 12.1838 14.0332 12.3302 13.8863 12.4695C13.2859 13.0471 12.5746 13.5074 11.7919 13.8249C10.981 14.154 10.1094 14.3228 9.2291 14.3213C8.33891 14.3213 7.4766 14.1535 6.66632 13.8249C5.8836 13.5074 5.17233 13.0471 4.57186 12.4695C3.97031 11.8939 3.49065 11.2117 3.15945 10.4606C2.81564 9.68203 2.64281 8.85525 2.64281 7.99989C2.64281 7.14453 2.8175 6.31775 3.15945 5.53917C3.49025 4.78739 3.96601 4.1106 4.57186 3.53025C5.17771 2.94989 5.88206 2.49274 6.66632 2.17489C7.4766 1.84632 8.33891 1.67846 9.2291 1.67846C10.1193 1.67846 10.9816 1.84453 11.7919 2.17489C12.5761 2.49274 13.2805 2.94989 13.8863 3.53025C14.0332 3.67132 14.1707 3.81774 14.3026 3.96775C14.3584 4.03382 14.4439 4.07132 14.5312 4.07132H15.8377C15.9548 4.07132 16.0273 3.94632 15.9622 3.85167C14.5368 1.7231 12.0428 0.314173 9.20866 0.321316C4.75585 0.33203 1.18579 3.80525 1.23039 8.07846C1.275 12.2838 4.83948 15.6785 9.2291 15.6785C12.0558 15.6785 14.5387 14.2713 15.9622 12.1481C16.0254 12.0535 15.9548 11.9285 15.8377 11.9285ZM17.4898 7.88739L14.8527 5.88739C14.7542 5.81239 14.6111 5.88025 14.6111 5.99989V7.35703H8.77564C8.69387 7.35703 8.62697 7.42132 8.62697 7.49989V8.49989C8.62697 8.57846 8.69387 8.64275 8.77564 8.64275H14.6111V9.99989C14.6111 10.1195 14.7561 10.1874 14.8527 10.1124L17.4898 8.11239C17.5076 8.09902 17.522 8.08195 17.5319 8.06246C17.5418 8.04297 17.5469 8.02157 17.5469 7.99989C17.5469 7.97821 17.5418 7.95681 17.5319 7.93732C17.522 7.91783 17.5076 7.90075 17.4898 7.88739Z" fill="black" fill-opacity="0.65"/>
</g>
<defs>
<clipPath id="clip0_7410_537">
<rect width="16.6516" height="16" fill="white" transform="translate(0.895996)"/>
</clipPath>
</defs>
</svg>
