<svg width="20" height="21" viewBox="0 0 20 21" fill="none" xmlns="http://www.w3.org/2000/svg">
<g opacity="0.65">
<mask id="mask0_7410_510" style="mask-type:alpha" maskUnits="userSpaceOnUse" x="0" y="0" width="20" height="21">
<rect y="0.0957031" width="20" height="20" fill="#D9D9D9"/>
</mask>
<g mask="url(#mask0_7410_510)">
<path d="M3.50006 14.596V8.72422V8.99665V5.59601V14.596ZM3.50006 7.43257H16.5001V5.85245C16.5001 5.78834 16.4734 5.72956 16.4199 5.67613C16.3665 5.62272 16.3077 5.59601 16.2436 5.59601H3.7565C3.69239 5.59601 3.63362 5.62272 3.58019 5.67613C3.52677 5.72956 3.50006 5.78834 3.50006 5.85245V7.43257ZM9.72602 15.6793H3.7565C3.39111 15.6793 3.07647 15.5474 2.81258 15.2835C2.54869 15.0196 2.41675 14.705 2.41675 14.3396V5.85245C2.41675 5.48706 2.54869 5.17242 2.81258 4.90853C3.07647 4.64464 3.39111 4.5127 3.7565 4.5127H16.2436C16.6187 4.5127 16.9358 4.64464 17.1948 4.90853C17.4539 5.17242 17.5834 5.48688 17.5834 5.85192V9.47582C17.171 9.24078 16.735 9.05675 16.2755 8.92374C15.8161 8.79072 15.3332 8.72422 14.827 8.72422C14.2504 8.72422 13.7021 8.81343 13.1822 8.99184C12.6623 9.17026 12.1967 9.42613 11.7854 9.75945H3.50006V14.3396C3.50006 14.4037 3.52677 14.4625 3.58019 14.5159C3.63362 14.5693 3.69239 14.596 3.7565 14.596H9.51608C9.53853 14.7895 9.56416 14.9755 9.593 15.1538C9.62185 15.3321 9.66619 15.5073 9.72602 15.6793ZM12.9327 15.9774L12.3702 16.1697C12.2602 16.2007 12.1587 16.1988 12.0659 16.1639C11.9729 16.1291 11.8992 16.0685 11.8446 15.9822L11.7549 15.7995C11.7068 15.7119 11.6844 15.624 11.6876 15.5359C11.6908 15.4478 11.7319 15.3615 11.811 15.2771L12.2309 14.8492C12.1571 14.6014 12.1203 14.3465 12.1203 14.0848C12.1203 13.823 12.1571 13.5682 12.2309 13.3204L11.811 12.9341C11.7373 12.8551 11.6961 12.7688 11.6876 12.6753C11.679 12.5819 11.7 12.4814 11.7505 12.3741L11.841 12.1989C11.8915 12.1036 11.9648 12.0423 12.061 12.0151C12.1571 11.9879 12.2602 11.9897 12.3702 12.0207L12.9119 12.1713C13.0754 11.9705 13.2701 11.8108 13.4961 11.6922C13.722 11.5736 13.9563 11.4892 14.1988 11.439L14.3046 10.9053C14.3268 10.7966 14.3781 10.7067 14.4585 10.6355C14.5389 10.5643 14.6318 10.5287 14.7372 10.5287H14.9375C15.043 10.5287 15.1359 10.5642 15.2163 10.6352C15.2967 10.7061 15.348 10.7935 15.3702 10.8973L15.4968 11.439C15.7393 11.5031 15.9771 11.591 16.21 11.7026C16.4429 11.8142 16.6341 11.9705 16.7837 12.1713L17.3254 12.0207C17.4354 11.9897 17.5314 11.9917 17.6135 12.0265C17.6955 12.0614 17.7608 12.1219 17.8093 12.2082L17.9199 12.3909C17.968 12.4785 17.9904 12.5698 17.9872 12.6649C17.984 12.76 17.9429 12.8497 17.8638 12.9341L17.4856 13.2995C17.5593 13.5474 17.5927 13.8057 17.5858 14.0744C17.5788 14.3431 17.5385 14.6014 17.4648 14.8492L17.8638 15.2563C17.9375 15.3353 17.9786 15.4251 17.9872 15.5255C17.9957 15.6259 17.976 15.7199 17.9279 15.8075L17.8354 15.9758C17.7838 16.0677 17.71 16.1307 17.6138 16.1649C17.5177 16.1991 17.4146 16.2007 17.3045 16.1697L16.7629 15.9774C16.5941 16.1644 16.4015 16.3137 16.1851 16.4253C15.9688 16.537 15.7393 16.6248 15.4968 16.6889L15.3494 17.2643C15.3323 17.369 15.2821 17.4509 15.1987 17.5102C15.1154 17.5695 15.0182 17.5992 14.9072 17.5992H14.7467C14.6357 17.5992 14.535 17.5674 14.4448 17.5038C14.3545 17.4403 14.3008 17.3561 14.2837 17.2514L14.1988 16.6889C13.9563 16.6248 13.7268 16.537 13.5105 16.4253C13.2941 16.3137 13.1016 16.1644 12.9327 15.9774ZM14.8522 15.6281C15.2873 15.6281 15.656 15.4754 15.9584 15.1701C16.2607 14.8648 16.4119 14.4946 16.4119 14.0595C16.4119 13.6244 16.2593 13.2557 15.954 12.9534C15.6487 12.651 15.2785 12.4998 14.8434 12.4998C14.4083 12.4998 14.0396 12.6525 13.7372 12.9578C13.4349 13.2631 13.2837 13.6333 13.2837 14.0684C13.2837 14.5035 13.4364 14.8722 13.7416 15.1745C14.047 15.4769 14.4171 15.6281 14.8522 15.6281Z" fill="black"/>
</g>
</g>
</svg>
