<svg width="17" height="16" viewBox="0 0 17 16" fill="none" xmlns="http://www.w3.org/2000/svg">
<g clip-path="url(#clip0_7410_525)">
<path d="M8.81445 0C4.3966 0 0.814453 3.58214 0.814453 8C0.814453 12.4179 4.3966 16 8.81445 16C13.2323 16 16.8145 12.4179 16.8145 8C16.8145 3.58214 13.2323 0 8.81445 0ZM8.81445 14.6429C5.1466 14.6429 2.1716 11.6679 2.1716 8C2.1716 4.33214 5.1466 1.35714 8.81445 1.35714C12.4823 1.35714 15.4573 4.33214 15.4573 8C15.4573 11.6679 12.4823 14.6429 8.81445 14.6429Z" fill="black" fill-opacity="0.65"/>
<path d="M10.8073 4.51292C10.2716 4.04328 9.56442 3.78613 8.81442 3.78613C8.06442 3.78613 7.35728 4.04506 6.82156 4.51292C6.26442 5.00042 5.95728 5.65578 5.95728 6.35756V6.49328C5.95728 6.57185 6.02156 6.63613 6.10013 6.63613H6.95728C7.03585 6.63613 7.10013 6.57185 7.10013 6.49328V6.35756C7.10013 5.57006 7.86978 4.92899 8.81442 4.92899C9.75906 4.92899 10.5287 5.57006 10.5287 6.35756C10.5287 6.91292 10.1358 7.42185 9.52692 7.65578C9.14835 7.80042 8.82692 8.05399 8.59656 8.38613C8.36263 8.72542 8.2412 9.13256 8.2412 9.54506V9.92899C8.2412 10.0076 8.30549 10.0718 8.38406 10.0718H9.2412C9.31978 10.0718 9.38406 10.0076 9.38406 9.92899V9.52363C9.38498 9.35028 9.43813 9.18122 9.53655 9.03852C9.63498 8.89581 9.77413 8.78608 9.93585 8.72363C10.9894 8.31828 11.6698 7.3897 11.6698 6.35756C11.6716 5.65578 11.3644 5.00042 10.8073 4.51292ZM8.10013 11.929C8.10013 12.1184 8.17539 12.3001 8.30934 12.4341C8.4433 12.568 8.62498 12.6433 8.81442 12.6433C9.00386 12.6433 9.18554 12.568 9.31949 12.4341C9.45345 12.3001 9.5287 12.1184 9.5287 11.929C9.5287 11.7396 9.45345 11.5579 9.31949 11.4239C9.18554 11.29 9.00386 11.2147 8.81442 11.2147C8.62498 11.2147 8.4433 11.29 8.30934 11.4239C8.17539 11.5579 8.10013 11.7396 8.10013 11.929Z" fill="black" fill-opacity="0.65"/>
</g>
<defs>
<clipPath id="clip0_7410_525">
<rect width="16" height="16" fill="white" transform="translate(0.814453)"/>
</clipPath>
</defs>
</svg>
