<svg xmlns="http://www.w3.org/2000/svg" width="24" height="24" viewBox="0 0 24 24" fill="none">
  <path d="M5.80062 20.1819C5.80062 20.3989 5.71634 20.607 5.56632 20.7604C5.4163 20.9138 5.21284 21 5.00068 21C4.78853 21 4.58506 20.9138 4.43504 20.7604C4.28503 20.607 4.20075 20.3989 4.20075 20.1819V5.79489L2.3673 7.6716C2.21709 7.82521 2.01337 7.91151 1.80094 7.91151C1.58852 7.91151 1.3848 7.82521 1.23459 7.6716C1.08439 7.51798 1 7.30963 1 7.09239C1 6.87514 1.08439 6.66679 1.23459 6.51318L4.43433 3.24243L4.44553 3.23098C4.59572 3.0812 4.79769 2.99819 5.00746 3.00003C5.21722 3.00187 5.41778 3.08841 5.56544 3.2408L8.76517 6.51318C8.83955 6.58913 8.89857 6.67932 8.93886 6.77861C8.97915 6.87789 8.99993 6.98431 9 7.09181C9.00007 7.1993 8.97944 7.30576 8.93929 7.4051C8.89914 7.50444 8.84024 7.59472 8.76597 7.67078C8.6917 7.74684 8.60351 7.8072 8.50643 7.84841C8.40936 7.88961 8.30529 7.91086 8.20019 7.91094C8.09508 7.91101 7.99099 7.88992 7.89385 7.84885C7.79672 7.80778 7.70844 7.74755 7.63407 7.6716L5.80062 5.79489V20.1819Z" fill="#996CFE"/>
  <path d="M10.238 20.6899C10.0856 20.4913 10 20.222 10 19.9412C10 19.6604 10.0856 19.391 10.238 19.1925C10.3904 18.9939 10.597 18.8824 10.8125 18.8824H22.1875C22.403 18.8824 22.6097 18.9939 22.762 19.1925C22.9144 19.391 23 19.6604 23 19.9412C23 20.222 22.9144 20.4913 22.762 20.6899C22.6097 20.8884 22.403 21 22.1875 21H10.8125C10.597 21 10.3904 20.8884 10.238 20.6899Z" fill="#996CFE"/>
  <path d="M10.2441 15.3958C10.4004 15.5944 10.6123 15.7059 10.8333 15.7059H19.1667C19.3877 15.7059 19.5996 15.5944 19.7559 15.3958C19.9122 15.1972 20 14.9279 20 14.6471C20 14.3663 19.9122 14.097 19.7559 13.8984C19.5996 13.6998 19.3877 13.5883 19.1667 13.5883H10.8333C10.6123 13.5883 10.4004 13.6998 10.2441 13.8984C10.0878 14.097 10 14.3663 10 14.6471C10 14.9279 10.0878 15.1972 10.2441 15.3958Z" fill="#996CFE"/>
  <path d="M10.2563 10.1017C10.4204 10.3003 10.6429 10.4119 10.875 10.4119H16.125C16.3571 10.4119 16.5796 10.3003 16.7437 10.1017C16.9078 9.90317 17 9.63386 17 9.35304C17 9.07222 16.9078 8.80291 16.7437 8.60434C16.5796 8.40577 16.3571 8.29422 16.125 8.29422H10.875C10.6429 8.29422 10.4204 8.40577 10.2563 8.60434C10.0922 8.80291 10 9.07222 10 9.35304C10 9.63386 10.0922 9.90317 10.2563 10.1017Z" fill="#996CFE"/>
  <path d="M10.2929 4.80755C10.4804 5.00612 10.7348 5.11768 11 5.11768H13C13.2652 5.11768 13.5196 5.00612 13.7071 4.80755C13.8946 4.60899 14 4.33967 14 4.05885C14 3.77803 13.8946 3.50872 13.7071 3.31015C13.5196 3.11158 13.2652 3.00003 13 3.00003H11C10.7348 3.00003 10.4804 3.11158 10.2929 3.31015C10.1054 3.50872 10 3.77803 10 4.05885C10 4.33967 10.1054 4.60899 10.2929 4.80755Z" fill="#996CFE"/>
</svg>