<svg width="152" height="34" viewBox="0 0 152 34" fill="none" xmlns="http://www.w3.org/2000/svg">
<path d="M0 32H152V34H0V32Z" fill="#66E0F7"/>
<path d="M9.198 14.436C9.198 15.192 9.012 15.852 8.64 16.416C8.268 16.98 7.728 17.418 7.02 17.73C6.324 18.03 5.472 18.18 4.464 18.18C4.02 18.18 3.582 18.15 3.15 18.09C2.73 18.03 2.322 17.946 1.926 17.838C1.542 17.718 1.176 17.574 0.828 17.406V14.868C1.44 15.132 2.07 15.378 2.718 15.606C3.378 15.822 4.032 15.93 4.68 15.93C5.124 15.93 5.478 15.87 5.742 15.75C6.018 15.63 6.216 15.468 6.336 15.264C6.468 15.06 6.534 14.826 6.534 14.562C6.534 14.238 6.42 13.962 6.192 13.734C5.976 13.506 5.682 13.296 5.31 13.104C4.938 12.9 4.512 12.684 4.032 12.456C3.732 12.312 3.408 12.144 3.06 11.952C2.712 11.748 2.376 11.502 2.052 11.214C1.74 10.914 1.482 10.554 1.278 10.134C1.074 9.714 0.972 9.21 0.972 8.622C0.972 7.854 1.146 7.2 1.494 6.66C1.854 6.108 2.358 5.688 3.006 5.4C3.666 5.112 4.44 4.968 5.328 4.968C6 4.968 6.636 5.046 7.236 5.202C7.848 5.358 8.484 5.58 9.144 5.868L8.262 7.992C7.674 7.752 7.146 7.566 6.678 7.434C6.21 7.302 5.73 7.236 5.238 7.236C4.902 7.236 4.614 7.29 4.374 7.398C4.134 7.506 3.948 7.656 3.816 7.848C3.696 8.04 3.636 8.268 3.636 8.532C3.636 8.832 3.726 9.09 3.906 9.306C4.086 9.51 4.356 9.708 4.716 9.9C5.076 10.092 5.526 10.32 6.066 10.584C6.726 10.896 7.284 11.22 7.74 11.556C8.208 11.892 8.568 12.288 8.82 12.744C9.072 13.2 9.198 13.764 9.198 14.436ZM16.7901 7.992C17.8941 7.992 18.7881 8.424 19.4721 9.288C20.1561 10.14 20.4981 11.4 20.4981 13.068C20.4981 14.184 20.3361 15.126 20.0121 15.894C19.6881 16.65 19.2441 17.22 18.6801 17.604C18.1161 17.988 17.4621 18.18 16.7181 18.18C16.2501 18.18 15.8421 18.12 15.4941 18C15.1581 17.88 14.8701 17.724 14.6301 17.532C14.3901 17.34 14.1801 17.136 14.0001 16.92H13.8561C13.9041 17.148 13.9401 17.388 13.9641 17.64C13.9881 17.88 14.0001 18.12 14.0001 18.36V22.32H11.3181V8.172H13.4961L13.8741 9.45H14.0001C14.1801 9.186 14.3961 8.946 14.6481 8.73C14.9001 8.502 15.2001 8.322 15.5481 8.19C15.9081 8.058 16.3221 7.992 16.7901 7.992ZM15.9261 10.134C15.4581 10.134 15.0861 10.23 14.8101 10.422C14.5341 10.614 14.3301 10.908 14.1981 11.304C14.0781 11.688 14.0121 12.174 14.0001 12.762V13.05C14.0001 13.686 14.0601 14.226 14.1801 14.67C14.3001 15.102 14.5041 15.432 14.7921 15.66C15.0801 15.888 15.4701 16.002 15.9621 16.002C16.3701 16.002 16.7061 15.888 16.9701 15.66C17.2341 15.432 17.4321 15.096 17.5641 14.652C17.6961 14.208 17.7621 13.668 17.7621 13.032C17.7621 12.072 17.6121 11.352 17.3121 10.872C17.0241 10.38 16.5621 10.134 15.9261 10.134ZM26.7587 7.992C27.6707 7.992 28.4507 8.166 29.0987 8.514C29.7587 8.862 30.2687 9.366 30.6287 10.026C30.9887 10.686 31.1687 11.496 31.1687 12.456V13.752H24.8327C24.8567 14.508 25.0787 15.102 25.4987 15.534C25.9307 15.966 26.5247 16.182 27.2807 16.182C27.9167 16.182 28.4927 16.122 29.0087 16.002C29.5247 15.87 30.0587 15.672 30.6107 15.408V17.478C30.1307 17.718 29.6207 17.892 29.0807 18C28.5527 18.12 27.9107 18.18 27.1547 18.18C26.1707 18.18 25.3007 18 24.5447 17.64C23.7887 17.268 23.1947 16.71 22.7627 15.966C22.3307 15.222 22.1147 14.286 22.1147 13.158C22.1147 12.006 22.3067 11.052 22.6907 10.296C23.0867 9.528 23.6327 8.952 24.3287 8.568C25.0247 8.184 25.8347 7.992 26.7587 7.992ZM26.7767 9.9C26.2607 9.9 25.8287 10.068 25.4807 10.404C25.1447 10.74 24.9467 11.262 24.8867 11.97H28.6487C28.6487 11.574 28.5767 11.22 28.4327 10.908C28.3007 10.596 28.0967 10.35 27.8207 10.17C27.5447 9.99 27.1967 9.9 26.7767 9.9ZM37.3755 7.974C38.6955 7.974 39.7035 8.262 40.3995 8.838C41.1075 9.402 41.4615 10.272 41.4615 11.448V18H39.5895L39.0675 16.668H38.9955C38.7195 17.016 38.4315 17.304 38.1315 17.532C37.8435 17.76 37.5075 17.922 37.1235 18.018C36.7515 18.126 36.2895 18.18 35.7375 18.18C35.1615 18.18 34.6395 18.072 34.1715 17.856C33.7155 17.628 33.3555 17.286 33.0915 16.83C32.8275 16.362 32.6955 15.774 32.6955 15.066C32.6955 14.022 33.0615 13.254 33.7935 12.762C34.5255 12.258 35.6235 11.982 37.0875 11.934L38.7975 11.88V11.448C38.7975 10.932 38.6595 10.554 38.3835 10.314C38.1195 10.074 37.7475 9.954 37.2675 9.954C36.7875 9.954 36.3195 10.026 35.8635 10.17C35.4075 10.302 34.9515 10.47 34.4955 10.674L33.6135 8.856C34.1415 8.58 34.7235 8.364 35.3595 8.208C36.0075 8.052 36.6795 7.974 37.3755 7.974ZM37.7535 13.482C36.8895 13.506 36.2895 13.662 35.9535 13.95C35.6175 14.238 35.4495 14.616 35.4495 15.084C35.4495 15.492 35.5695 15.786 35.8095 15.966C36.0495 16.134 36.3615 16.218 36.7455 16.218C37.3215 16.218 37.8075 16.05 38.2035 15.714C38.5995 15.366 38.7975 14.88 38.7975 14.256V13.446L37.7535 13.482ZM46.8887 10.44C46.8887 10.812 46.8707 11.184 46.8347 11.556C46.8107 11.916 46.7807 12.282 46.7447 12.654H46.7807C46.9007 12.486 47.0207 12.318 47.1407 12.15C47.2727 11.982 47.4047 11.814 47.5367 11.646C47.6687 11.478 47.8067 11.316 47.9507 11.16L50.7047 8.172H53.7287L49.8227 12.438L53.9627 18H50.8667L48.0407 14.022L46.8887 14.94V18H44.2067V4.32H46.8887V10.44ZM58.0508 8.172V18H55.3688V8.172H58.0508ZM56.7188 4.32C57.1148 4.32 57.4568 4.416 57.7448 4.608C58.0328 4.788 58.1768 5.13 58.1768 5.634C58.1768 6.126 58.0328 6.468 57.7448 6.66C57.4568 6.852 57.1148 6.948 56.7188 6.948C56.3108 6.948 55.9628 6.852 55.6748 6.66C55.3988 6.468 55.2608 6.126 55.2608 5.634C55.2608 5.13 55.3988 4.788 55.6748 4.608C55.9628 4.416 56.3108 4.32 56.7188 4.32ZM66.4332 7.992C67.4892 7.992 68.3352 8.28 68.9712 8.856C69.6072 9.42 69.9252 10.332 69.9252 11.592V18H67.2432V12.258C67.2432 11.55 67.1172 11.022 66.8652 10.674C66.6132 10.314 66.2112 10.134 65.6592 10.134C64.8432 10.134 64.2852 10.416 63.9852 10.98C63.6852 11.532 63.5352 12.33 63.5352 13.374V18H60.8532V8.172H62.9052L63.2652 9.432H63.4092C63.6252 9.096 63.8892 8.826 64.2012 8.622C64.5132 8.406 64.8612 8.25 65.2452 8.154C65.6292 8.046 66.0252 7.992 66.4332 7.992ZM75.8693 7.992C76.4693 7.992 77.0093 8.112 77.4893 8.352C77.9693 8.592 78.3773 8.952 78.7133 9.432H78.7853L79.0013 8.172H81.2693V18.018C81.2693 18.954 81.0833 19.74 80.7113 20.376C80.3513 21.012 79.8053 21.492 79.0733 21.816C78.3413 22.152 77.4353 22.32 76.3553 22.32C75.6593 22.32 75.0113 22.278 74.4113 22.194C73.8233 22.11 73.2473 21.96 72.6833 21.744V19.602C73.0913 19.77 73.4993 19.908 73.9073 20.016C74.3273 20.136 74.7533 20.22 75.1853 20.268C75.6293 20.328 76.0733 20.358 76.5173 20.358C77.2133 20.358 77.7293 20.172 78.0653 19.8C78.4133 19.428 78.5873 18.87 78.5873 18.126V17.928C78.5873 17.724 78.5933 17.514 78.6053 17.298C78.6293 17.082 78.6473 16.89 78.6593 16.722H78.5873C78.2513 17.238 77.8493 17.61 77.3813 17.838C76.9133 18.066 76.3853 18.18 75.7973 18.18C74.6333 18.18 73.7213 17.736 73.0613 16.848C72.4133 15.948 72.0893 14.7 72.0893 13.104C72.0893 12.024 72.2393 11.106 72.5393 10.35C72.8393 9.582 73.2713 9 73.8353 8.604C74.4113 8.196 75.0893 7.992 75.8693 7.992ZM76.7153 10.17C76.2953 10.17 75.9413 10.284 75.6533 10.512C75.3773 10.728 75.1673 11.058 75.0233 11.502C74.8913 11.934 74.8253 12.48 74.8253 13.14C74.8253 14.124 74.9813 14.862 75.2933 15.354C75.6053 15.834 76.0913 16.074 76.7513 16.074C77.0993 16.074 77.3993 16.032 77.6513 15.948C77.9033 15.852 78.1073 15.702 78.2633 15.498C78.4313 15.282 78.5573 15.006 78.6413 14.67C78.7253 14.334 78.7673 13.926 78.7673 13.446V13.122C78.7673 12.414 78.6953 11.844 78.5513 11.412C78.4073 10.98 78.1853 10.668 77.8853 10.476C77.5853 10.272 77.1953 10.17 76.7153 10.17Z" fill="#66E0F7"/>
</svg>
