<svg width="74" height="74" viewBox="0 0 74 74" fill="none" xmlns="http://www.w3.org/2000/svg">
<g clip-path="url(#clip0_5177_48)">
<path fill-rule="evenodd" clip-rule="evenodd" d="M70.7109 3.28888V13.1531H68.8679V3.28888H70.7109Z" fill="#868EAF"/>
<path fill-rule="evenodd" clip-rule="evenodd" d="M61.8661 10.6147L61.1163 13.1554H59.2L62.4147 3.29117H64.6329L67.8332 13.1554H65.8186L65.0664 10.6197H61.8661V10.6147ZM64.6884 9.16494L63.5146 5.17631H63.4332L62.2594 9.16494H64.6884Z" fill="#868EAF"/>
<path d="M0 9.25V53.1875V64.1333C0 69.5825 4.41747 74 9.86667 74H63.3269C66.1576 74 68.8723 73.0254 70.8739 71.2907C72.8755 69.556 74 67.2033 74 64.75V16.4444H68.6635H59.2C57.3836 16.4444 55.9111 14.972 55.9111 13.1556V0H10.6731C7.8424 0 5.12767 0.974556 3.12608 2.70927C1.12449 4.44398 0 6.79675 0 9.25Z" fill="#868EAF"/>
<path d="M26.068 42.5059C26.068 43.9566 25.7167 45.1919 25.014 46.2119C24.3113 47.2093 23.3027 47.9799 21.988 48.5239C20.696 49.0679 19.166 49.3399 17.398 49.3399C16.4913 49.3399 15.6187 49.2946 14.78 49.2039C13.964 49.1133 13.216 48.9886 12.536 48.8299C11.856 48.6486 11.2553 48.4333 10.734 48.1839V45.2599C11.55 45.6226 12.5587 45.9513 13.76 46.2459C14.984 46.5406 16.242 46.6879 17.534 46.6879C18.7353 46.6879 19.744 46.5293 20.56 46.2119C21.376 45.8946 21.988 45.4413 22.396 44.8519C22.804 44.2626 23.008 43.5713 23.008 42.7779C23.008 41.9846 22.838 41.3159 22.498 40.7719C22.158 40.2279 21.5687 39.7293 20.73 39.2759C19.914 38.7999 18.7693 38.3013 17.296 37.7799C16.2533 37.3946 15.3353 36.9866 14.542 36.5559C13.7713 36.1026 13.1253 35.5926 12.604 35.0259C12.0827 34.4593 11.686 33.8133 11.414 33.0879C11.1647 32.3626 11.04 31.5239 11.04 30.5719C11.04 29.2799 11.3687 28.1806 12.026 27.2739C12.6833 26.3446 13.59 25.6306 14.746 25.1319C15.9247 24.6333 17.2733 24.3839 18.792 24.3839C20.1293 24.3839 21.3533 24.5086 22.464 24.7579C23.5747 25.0073 24.5833 25.3359 25.49 25.7439L24.538 28.3619C23.6993 27.9993 22.7813 27.6933 21.784 27.4439C20.8093 27.1946 19.7893 27.0699 18.724 27.0699C17.704 27.0699 16.854 27.2173 16.174 27.5119C15.494 27.8066 14.984 28.2259 14.644 28.7699C14.304 29.2913 14.134 29.9033 14.134 30.6059C14.134 31.4219 14.304 32.1019 14.644 32.6459C14.984 33.1899 15.5393 33.6773 16.31 34.1079C17.0807 34.5386 18.1233 35.0033 19.438 35.5019C20.866 36.0233 22.0673 36.5899 23.042 37.2019C24.0393 37.7913 24.7873 38.5053 25.286 39.3439C25.8073 40.1826 26.068 41.2366 26.068 42.5059ZM44.7282 42.5059C44.7282 43.9566 44.3768 45.1919 43.6742 46.2119C42.9715 47.2093 41.9628 47.9799 40.6482 48.5239C39.3562 49.0679 37.8262 49.3399 36.0582 49.3399C35.1515 49.3399 34.2788 49.2946 33.4402 49.2039C32.6242 49.1133 31.8762 48.9886 31.1962 48.8299C30.5162 48.6486 29.9155 48.4333 29.3942 48.1839V45.2599C30.2102 45.6226 31.2188 45.9513 32.4202 46.2459C33.6442 46.5406 34.9022 46.6879 36.1942 46.6879C37.3955 46.6879 38.4042 46.5293 39.2202 46.2119C40.0362 45.8946 40.6482 45.4413 41.0562 44.8519C41.4642 44.2626 41.6682 43.5713 41.6682 42.7779C41.6682 41.9846 41.4982 41.3159 41.1582 40.7719C40.8182 40.2279 40.2288 39.7293 39.3902 39.2759C38.5742 38.7999 37.4295 38.3013 35.9562 37.7799C34.9135 37.3946 33.9955 36.9866 33.2022 36.5559C32.4315 36.1026 31.7855 35.5926 31.2642 35.0259C30.7428 34.4593 30.3462 33.8133 30.0742 33.0879C29.8248 32.3626 29.7002 31.5239 29.7002 30.5719C29.7002 29.2799 30.0288 28.1806 30.6862 27.2739C31.3435 26.3446 32.2502 25.6306 33.4062 25.1319C34.5848 24.6333 35.9335 24.3839 37.4522 24.3839C38.7895 24.3839 40.0135 24.5086 41.1242 24.7579C42.2348 25.0073 43.2435 25.3359 44.1502 25.7439L43.1982 28.3619C42.3595 27.9993 41.4415 27.6933 40.4442 27.4439C39.4695 27.1946 38.4495 27.0699 37.3842 27.0699C36.3642 27.0699 35.5142 27.2173 34.8342 27.5119C34.1542 27.8066 33.6442 28.2259 33.3042 28.7699C32.9642 29.2913 32.7942 29.9033 32.7942 30.6059C32.7942 31.4219 32.9642 32.1019 33.3042 32.6459C33.6442 33.1899 34.1995 33.6773 34.9702 34.1079C35.7408 34.5386 36.7835 35.0033 38.0982 35.5019C39.5262 36.0233 40.7275 36.5899 41.7022 37.2019C42.6995 37.7913 43.4475 38.5053 43.9462 39.3439C44.4675 40.1826 44.7282 41.2366 44.7282 42.5059ZM57.3023 48.9999H54.2423V27.4099H46.6603V24.7239H64.8503V27.4099H57.3023V48.9999Z" fill="white"/>
</g>
<defs>
<clipPath id="clip0_5177_48">
<rect width="74" height="74" fill="white"/>
</clipPath>
</defs>
</svg>
