<svg width="120" height="25" viewBox="0 0 120 25" fill="none" xmlns="http://www.w3.org/2000/svg">
<path fill-rule="evenodd" clip-rule="evenodd" d="M19.6204 15.7704C19.6204 20.7283 15.1997 24.3723 8.38986 24.3723C5.36424 24.3723 2.47257 23.5829 0 22.0986L1.5946 15.7866C5.61938 19.3656 12.5118 19.0684 12.5118 16.2484C12.5118 13.1421 1.87863 15.4718 1.87863 8.24391C1.87788 3.2256 6.11952 0 12.9294 0C15.677 0 18.2456 0.47763 20.2173 1.37398L18.9026 6.80989C17.111 5.67528 14.8407 5.07796 12.5703 5.07796C9.82275 5.07796 8.38911 6.0336 8.38911 7.28789C8.38911 10.4538 19.6196 8.66188 19.6196 15.7708L19.6204 15.7704Z" fill="#6B41CB"/>
<path d="M48.1215 7.62407L45.3008 23.6114H50.9149L53.7357 7.62407H48.1215ZM54.3056 0.98415C53.8115 0.547416 53.1275 0.328674 52.254 0.328674C51.5314 0.328674 50.8763 0.481381 50.2876 0.784543C49.6981 1.08883 49.2374 1.49255 48.9057 1.99607C48.5729 2.49958 48.4067 3.05526 48.4067 3.66271C48.4067 4.3467 48.6536 4.90762 49.1473 5.34435C49.6411 5.78184 50.3345 5.99983 51.2278 5.99983C51.9497 5.99983 52.6003 5.85238 53.18 5.55784C53.7589 5.26331 54.2148 4.8596 54.5476 4.3467C54.88 3.83417 55.0466 3.283 55.0466 2.69394C55.0466 1.99119 54.7994 1.42126 54.3056 0.983774V0.98415Z" fill="#6B41CB"/>
<path d="M63.0175 6.32735C63.3784 6.07109 63.8917 5.9424 64.5566 5.9424C64.8034 5.9424 64.9937 5.95253 65.1265 5.97129L65.9812 1.21187C65.4492 1.17397 65.0597 1.15521 64.8128 1.15521C62.5515 1.15521 60.7134 1.71576 59.2981 2.83686C57.8829 3.95759 56.9854 5.55406 56.6049 7.62404H54.7815L53.9834 12.2979H55.7791L53.7842 23.6113H59.3983L61.3932 12.2979H64.0148L64.8413 7.62404H62.248C62.3995 7.01622 62.6562 6.58399 63.0171 6.32735H63.0175Z" fill="#6B41CB"/>
<path d="M72.7355 12.2983H75.6426L76.4684 7.62442H73.5617L74.2457 3.7486H68.6601L67.9761 7.62442H65.8956L65.0698 12.2983H67.1499L66.2382 17.3421C66.1241 17.9687 66.0667 18.5488 66.0667 19.0804C66.0667 22.1012 67.8433 23.6117 71.3961 23.6117H73.6758L74.559 18.8242H73.0199C72.5828 18.8242 72.2692 18.7487 72.0797 18.5964C71.8895 18.4441 71.7949 18.1972 71.7949 17.8554C71.7949 17.6843 71.8039 17.5515 71.8231 17.4565L72.7348 12.2987L72.7355 12.2983Z" fill="#6B41CB"/>
<path d="M88.788 7.62415L87.2775 16.2305V16.0879C87.1064 17.0571 86.7312 17.8078 86.1515 18.3395C85.5718 18.8719 84.8646 19.1375 84.0286 19.1375C83.3255 19.1375 82.7792 18.9428 82.3905 18.5534C82.001 18.1639 81.8059 17.6172 81.8059 16.9145C81.8059 16.6106 81.8247 16.3731 81.863 16.202L83.3735 7.62415H77.8164L76.1633 16.886C76.0496 17.5129 75.9922 18.1114 75.9922 18.6813C75.9922 20.277 76.4195 21.5223 77.275 22.4145C78.1297 23.3083 79.3266 23.7544 80.8657 23.7544C82.0247 23.7544 83.0835 23.503 84.0432 22.9991C85.0022 22.496 85.7958 21.8161 86.4228 20.9614L85.9673 23.6118H91.5814L94.4025 7.62452H88.7884L88.788 7.62415Z" fill="#291B56"/>
<path d="M109.724 8.82097C108.869 7.92875 107.672 7.48151 106.133 7.48151C104.955 7.48151 103.886 7.73814 102.927 8.25067C101.967 8.76394 101.175 9.44793 100.548 10.303L101.032 7.62408H95.4176L92.625 23.6114H98.2106L99.7212 15.005V15.1187C99.8923 14.1499 100.267 13.3995 100.847 12.8679C101.426 12.3359 102.134 12.0698 102.97 12.0698C103.673 12.0698 104.219 12.2646 104.608 12.654C104.998 13.0435 105.192 13.5901 105.192 14.2929C105.192 14.6163 105.174 14.8628 105.136 15.0335L103.625 23.6114H109.211L110.835 14.321C110.949 13.6945 111.006 13.1054 111.006 12.5538C111.006 10.9581 110.579 9.71432 109.724 8.8206L109.724 8.82097Z" fill="#291B56"/>
<path d="M113.074 7.62407L110.253 23.6114H115.868L118.688 7.62407H113.074ZM119.258 0.98415C118.764 0.547416 118.08 0.328674 117.207 0.328674C116.484 0.328674 115.829 0.481381 115.24 0.784543C114.651 1.08883 114.19 1.49255 113.858 1.99607C113.526 2.49958 113.359 3.05526 113.359 3.66271C113.359 4.3467 113.606 4.90762 114.1 5.34435C114.594 5.78184 115.287 5.99983 116.18 5.99983C116.902 5.99983 117.553 5.85238 118.133 5.55784C118.712 5.26331 119.167 4.8596 119.501 4.3467C119.833 3.83417 120 3.283 120 2.69394C120 1.99119 119.752 1.42126 119.258 0.983774V0.98415Z" fill="#291B56"/>
<path d="M37.918 14.7664C37.918 14.7664 37.9083 14.7818 37.8914 14.8103C37.404 15.632 37.054 16.4875 36.8412 17.3771C36.4536 15.6267 35.7967 14.5537 34.8365 14.1181C34.2527 13.9564 33.7304 13.9065 33.2727 13.9736C33.2273 13.9804 33.183 13.9879 33.1391 13.9972C32.4116 14.1458 31.8578 14.61 31.4912 15.4144C30.6695 15.3851 29.9702 15.5843 29.3972 15.9757C30.4197 16.2361 31.1359 16.8702 31.6233 17.5508C32.4015 18.637 32.5973 19.841 32.5294 19.8331C31.9756 19.6204 31.4128 19.4711 30.8414 19.3844C28.3444 19.0069 25.6854 19.8399 22.898 21.9267C24.789 21.2536 27.0425 21.4225 29.5469 22.4194L29.0385 23.611H22.7401L21.7304 8.70655L21.6572 7.62372H27.2143L27.0717 18.3106V18.3094L31.4605 7.62372H37.4449L37.9177 14.7664H37.918Z" fill="#6B41CB"/>
<path fill-rule="evenodd" clip-rule="evenodd" d="M32.7766 15.9659C32.6408 15.7847 32.678 15.5276 32.8595 15.3922C33.0408 15.2567 33.2978 15.2935 33.4332 15.4751C33.5687 15.6563 33.5319 15.9133 33.3503 16.0488C33.1691 16.1846 32.9121 16.1475 32.7766 15.9659Z" fill="white"/>
<path fill-rule="evenodd" clip-rule="evenodd" d="M33.3503 16.0488C33.1691 16.1846 32.9121 16.1475 32.7766 15.9659C32.6408 15.7847 32.678 15.5276 32.8595 15.3922C33.0408 15.2567 33.2978 15.2935 33.4332 15.4751C33.5687 15.6563 33.5319 15.9133 33.3503 16.0488Z" fill="#6B41CB"/>
<path d="M46.9922 7.62409L46.8658 7.92275L40.2093 23.6114C39.1528 14.3057 46.214 8.5182 46.214 8.5182C43.8822 8.70955 41.9379 10.0509 40.5192 11.4421L41.8058 7.62372H46.9922V7.62409Z" fill="#6B41CB"/>
</svg>
