<svg width="74" height="74" viewBox="0 0 74 74" fill="none" xmlns="http://www.w3.org/2000/svg">
<g clip-path="url(#clip0_5061_1196)">
<path fill-rule="evenodd" clip-rule="evenodd" d="M70.7111 3.28882V13.1531H68.8682V3.28882H70.7111Z" fill="#FF5D5D"/>
<path fill-rule="evenodd" clip-rule="evenodd" d="M61.8663 10.6147L61.1166 13.1554H59.2002L62.4149 3.29114H64.6331L67.8335 13.1554H65.8189L65.0667 10.6196H61.8663V10.6147ZM64.6887 9.16491L63.5149 5.17628H63.4334L62.2597 9.16491H64.6887Z" fill="#FF5D5D"/>
<path d="M0 9.25V53.1875V64.1333C0 69.5825 4.41747 74 9.86667 74H63.3269C66.1576 74 68.8723 73.0254 70.8739 71.2907C72.8755 69.556 74 67.2033 74 64.75V16.4444H68.6635H59.2C57.3836 16.4444 55.9111 14.972 55.9111 13.1556V0H10.6731C7.8424 0 5.12767 0.974556 3.12608 2.70927C1.12449 4.44398 0 6.79675 0 9.25Z" fill="#FF5D5D"/>
<path d="M24.068 42.506C24.068 43.9567 23.7167 45.192 23.014 46.212C22.3113 47.2093 21.3027 47.98 19.988 48.524C18.696 49.068 17.166 49.34 15.398 49.34C14.4913 49.34 13.6187 49.2947 12.78 49.204C11.964 49.1133 11.216 48.9887 10.536 48.83C9.856 48.6487 9.25533 48.4333 8.734 48.184V45.26C9.55 45.6227 10.5587 45.9513 11.76 46.246C12.984 46.5407 14.242 46.688 15.534 46.688C16.7353 46.688 17.744 46.5293 18.56 46.212C19.376 45.8947 19.988 45.4413 20.396 44.852C20.804 44.2627 21.008 43.5713 21.008 42.778C21.008 41.9847 20.838 41.316 20.498 40.772C20.158 40.228 19.5687 39.7293 18.73 39.276C17.914 38.8 16.7693 38.3013 15.296 37.78C14.2533 37.3947 13.3353 36.9867 12.542 36.556C11.7713 36.1027 11.1253 35.5927 10.604 35.026C10.0827 34.4593 9.686 33.8133 9.414 33.088C9.16467 32.3627 9.04 31.524 9.04 30.572C9.04 29.28 9.36867 28.1807 10.026 27.274C10.6833 26.3447 11.59 25.6307 12.746 25.132C13.9247 24.6333 15.2733 24.384 16.792 24.384C18.1293 24.384 19.3533 24.5087 20.464 24.758C21.5747 25.0073 22.5833 25.336 23.49 25.744L22.538 28.362C21.6993 27.9993 20.7813 27.6933 19.784 27.444C18.8093 27.1947 17.7893 27.07 16.724 27.07C15.704 27.07 14.854 27.2173 14.174 27.512C13.494 27.8067 12.984 28.226 12.644 28.77C12.304 29.2913 12.134 29.9033 12.134 30.606C12.134 31.422 12.304 32.102 12.644 32.646C12.984 33.19 13.5393 33.6773 14.31 34.108C15.0807 34.5387 16.1233 35.0033 17.438 35.502C18.866 36.0233 20.0673 36.59 21.042 37.202C22.0393 37.7913 22.7873 38.5053 23.286 39.344C23.8073 40.1827 24.068 41.2367 24.068 42.506ZM39.5662 36.658C39.4528 36.182 39.3395 35.7173 39.2262 35.264C39.1128 34.788 39.0108 34.346 38.9202 33.938C38.8522 33.5073 38.7955 33.122 38.7502 32.782C38.7048 33.1447 38.6368 33.5413 38.5462 33.972C38.4782 34.38 38.3875 34.7993 38.2742 35.23C38.1835 35.6607 38.0815 36.0913 37.9682 36.522L34.6362 49H31.4062L26.2382 29.552H29.1622L32.0862 40.976C32.2222 41.4973 32.3582 42.064 32.4942 42.676C32.6302 43.2653 32.7548 43.8433 32.8682 44.41C32.9815 44.954 33.0722 45.4413 33.1402 45.872C33.2308 45.4413 33.3215 44.988 33.4122 44.512C33.5255 44.036 33.6388 43.526 33.7522 42.982C33.8882 42.438 34.0355 41.8713 34.1942 41.282L37.2882 29.552H40.1782L43.3402 41.384C43.4762 41.8827 43.6122 42.404 43.7482 42.948C43.8842 43.492 44.0088 44.0247 44.1222 44.546C44.2355 45.0447 44.3262 45.498 44.3942 45.906C44.4395 45.5433 44.5188 45.1127 44.6322 44.614C44.7455 44.1153 44.8588 43.628 44.9722 43.152C45.1082 42.676 45.2102 42.2907 45.2782 41.996L48.4402 29.552H51.3302L46.1282 49H42.8982L39.5662 36.658ZM66.849 29.552V32.102H61.069V49H58.111V32.102H52.331V29.552H66.849Z" fill="white"/>
</g>
<defs>
<clipPath id="clip0_5061_1196">
<rect width="74" height="74" fill="white"/>
</clipPath>
</defs>
</svg>
