<svg width="27" height="28" viewBox="0 0 27 28" fill="none" xmlns="http://www.w3.org/2000/svg">
<rect width="27" height="28" fill="#1E1E1E"/>
<g id="Speaking">
<path d="M-5496 -532C-5496 -533.105 -5495.1 -534 -5494 -534H4586C4587.1 -534 4588 -533.105 4588 -532V2111C4588 2112.1 4587.1 2113 4586 2113H-5494C-5495.1 2113 -5496 2112.1 -5496 2111V-532Z" fill="#404040"/>
<path d="M-5494 -533H4586V-535H-5494V-533ZM4587 -532V2111H4589V-532H4587ZM4586 2112H-5494V2114H4586V2112ZM-5495 2111V-532H-5497V2111H-5495ZM-5494 2112C-5494.55 2112 -5495 2111.55 -5495 2111H-5497C-5497 2112.66 -5495.66 2114 -5494 2114V2112ZM4587 2111C4587 2111.55 4586.55 2112 4586 2112V2114C4587.66 2114 4589 2112.66 4589 2111H4587ZM4586 -533C4586.55 -533 4587 -532.552 4587 -532H4589C4589 -533.657 4587.66 -535 4586 -535V-533ZM-5494 -535C-5495.66 -535 -5497 -533.657 -5497 -532H-5495C-5495 -532.552 -5494.55 -533 -5494 -533V-535Z" fill="white" fill-opacity="0.1"/>
<g id="Retell Lectures - 1880 Width" clip-path="url(#clip0_2694_219)">
<rect width="1880" height="1319" transform="translate(-1394 -434)" fill="#F1F5F9"/>
<g id="Frame 336">
<g id="Rectangle">
<rect x="-1294" y="-42" width="1680" height="112" rx="8" fill="white"/>
<rect x="-1293.5" y="-41.5" width="1679" height="111" rx="7.5" stroke="#C6CBD9" stroke-opacity="0.65"/>
</g>
<path id="Rectangle_2" d="M-26.5 14C-26.5 2.67816 -17.3218 -6.5 -6 -6.5H33C44.3218 -6.5 53.5 2.67816 53.5 14C53.5 25.3218 44.3218 34.5 33 34.5H-6C-17.3218 34.5 -26.5 25.3218 -26.5 14Z" stroke="#E2E2EA"/>
<g id="subway:sound-1">
<path id="Vector" d="M20.6191 14C20.6191 12.4353 19.8758 11.0518 18.737 10.2073C18.2855 9.87248 17.6779 10.1261 17.4685 10.6478L17.3489 10.9459C17.1468 11.4493 17.4081 12.0134 17.7694 12.418C18.1407 12.8338 18.3673 13.3914 18.3673 14.0055C18.3673 14.6189 18.1386 15.1774 17.7643 15.5948C17.4036 15.997 17.1456 16.5586 17.3469 17.06L17.4664 17.3577C17.6766 17.8815 18.2876 18.1344 18.7396 17.7964C19.8769 16.9461 20.6191 15.5635 20.6191 14ZM20.4967 5.84765C20.0097 5.56624 19.4074 5.81725 19.1979 6.33926L19.0782 6.63749C18.8763 7.14051 19.1171 7.7067 19.5779 7.99207C21.5511 9.21397 22.8709 11.447 22.8709 14C22.8709 16.5578 21.5511 18.7871 19.578 20.0081C19.1171 20.2933 18.8763 20.8595 19.0782 21.3625L19.1979 21.6607C19.4074 22.1828 20.0097 22.4338 20.4967 22.1523C23.2547 20.5588 25.1173 17.5069 25.1173 14C25.1173 10.4931 23.2547 7.44121 20.4967 5.84765ZM3.62085 8.16484C3.06856 8.16484 2.62085 8.61256 2.62085 9.16484V18.8297C2.62085 19.382 3.06856 19.8297 3.62085 19.8297H6.69399C6.96563 19.8297 7.22558 19.9402 7.41407 20.1358L13.2723 26.215C13.8967 26.863 14.9923 26.421 14.9923 25.5211V2.47768C14.9923 1.57798 13.897 1.1359 13.2725 1.78354L7.41403 7.85898C7.22556 8.05443 6.96571 8.16484 6.69419 8.16484H3.62085Z" fill="#9A9AAF"/>
</g>
</g>
</g>
</g>
<defs>
<clipPath id="clip0_2694_219">
<rect width="1880" height="1319" fill="white" transform="translate(-1394 -434)"/>
</clipPath>
</defs>
</svg>
