<svg width="152" height="34" viewBox="0 0 152 34" fill="none" xmlns="http://www.w3.org/2000/svg">
<path d="M0 32H152V34H0V32Z" fill="#FF5D5D"/>
<path d="M17.406 5.148L14.13 18H11.034L9.288 11.25C9.252 11.118 9.204 10.92 9.144 10.656C9.096 10.392 9.036 10.104 8.964 9.792C8.904 9.48 8.85 9.186 8.802 8.91C8.754 8.622 8.718 8.4 8.694 8.244C8.682 8.4 8.646 8.622 8.586 8.91C8.538 9.186 8.484 9.48 8.424 9.792C8.364 10.092 8.304 10.38 8.244 10.656C8.184 10.92 8.136 11.124 8.1 11.268L6.372 18H3.276L0 5.148H2.682L4.32 12.168C4.368 12.372 4.422 12.624 4.482 12.924C4.542 13.212 4.602 13.518 4.662 13.842C4.722 14.154 4.776 14.46 4.824 14.76C4.884 15.06 4.926 15.318 4.95 15.534C4.974 15.306 5.01 15.048 5.058 14.76C5.106 14.46 5.16 14.16 5.22 13.86C5.28 13.548 5.334 13.26 5.382 12.996C5.442 12.72 5.496 12.504 5.544 12.348L7.416 5.148H9.99L11.862 12.348C11.898 12.504 11.946 12.72 12.006 12.996C12.066 13.26 12.126 13.548 12.186 13.86C12.246 14.172 12.3 14.478 12.348 14.778C12.396 15.066 12.432 15.318 12.456 15.534C12.492 15.234 12.546 14.88 12.618 14.472C12.69 14.052 12.768 13.632 12.852 13.212C12.948 12.792 13.026 12.444 13.086 12.168L14.724 5.148H17.406ZM24.1206 7.992C24.2526 7.992 24.4086 7.998 24.5886 8.01C24.7686 8.022 24.9126 8.04 25.0206 8.064L24.8226 10.584C24.7386 10.56 24.6126 10.542 24.4446 10.53C24.2886 10.506 24.1506 10.494 24.0306 10.494C23.6826 10.494 23.3466 10.542 23.0226 10.638C22.6986 10.722 22.4046 10.86 22.1406 11.052C21.8886 11.244 21.6846 11.502 21.5286 11.826C21.3846 12.138 21.3126 12.528 21.3126 12.996V18H18.6306V8.172H20.6646L21.0606 9.828H21.1866C21.3786 9.492 21.6186 9.186 21.9066 8.91C22.1946 8.634 22.5246 8.412 22.8966 8.244C23.2806 8.076 23.6886 7.992 24.1206 7.992ZM29.4864 8.172V18H26.8044V8.172H29.4864ZM28.1544 4.32C28.5504 4.32 28.8924 4.416 29.1804 4.608C29.4684 4.788 29.6124 5.13 29.6124 5.634C29.6124 6.126 29.4684 6.468 29.1804 6.66C28.8924 6.852 28.5504 6.948 28.1544 6.948C27.7464 6.948 27.3984 6.852 27.1104 6.66C26.8344 6.468 26.6964 6.126 26.6964 5.634C26.6964 5.13 26.8344 4.788 27.1104 4.608C27.3984 4.416 27.7464 4.32 28.1544 4.32ZM36.4288 16.038C36.7288 16.038 37.0168 16.008 37.2928 15.948C37.5688 15.888 37.8448 15.816 38.1208 15.732V17.73C37.8328 17.85 37.4728 17.952 37.0408 18.036C36.6208 18.132 36.1588 18.18 35.6548 18.18C35.0668 18.18 34.5388 18.084 34.0708 17.892C33.6148 17.7 33.2488 17.37 32.9728 16.902C32.7088 16.422 32.5768 15.762 32.5768 14.922V10.188H31.2988V9.054L32.7748 8.154L33.5488 6.084H35.2588V8.172H38.0128V10.188H35.2588V14.922C35.2588 15.294 35.3668 15.576 35.5828 15.768C35.7988 15.948 36.0808 16.038 36.4288 16.038ZM42.7755 8.172V18H40.0935V8.172H42.7755ZM41.4435 4.32C41.8395 4.32 42.1815 4.416 42.4695 4.608C42.7575 4.788 42.9015 5.13 42.9015 5.634C42.9015 6.126 42.7575 6.468 42.4695 6.66C42.1815 6.852 41.8395 6.948 41.4435 6.948C41.0355 6.948 40.6875 6.852 40.3995 6.66C40.1235 6.468 39.9855 6.126 39.9855 5.634C39.9855 5.13 40.1235 4.788 40.3995 4.608C40.6875 4.416 41.0355 4.32 41.4435 4.32ZM51.1578 7.992C52.2138 7.992 53.0598 8.28 53.6958 8.856C54.3318 9.42 54.6498 10.332 54.6498 11.592V18H51.9678V12.258C51.9678 11.55 51.8418 11.022 51.5898 10.674C51.3378 10.314 50.9358 10.134 50.3838 10.134C49.5678 10.134 49.0098 10.416 48.7098 10.98C48.4098 11.532 48.2598 12.33 48.2598 13.374V18H45.5778V8.172H47.6298L47.9898 9.432H48.1338C48.3498 9.096 48.6138 8.826 48.9258 8.622C49.2378 8.406 49.5858 8.25 49.9698 8.154C50.3538 8.046 50.7498 7.992 51.1578 7.992ZM60.5939 7.992C61.1939 7.992 61.7339 8.112 62.2139 8.352C62.6939 8.592 63.1019 8.952 63.4379 9.432H63.5099L63.7259 8.172H65.9939V18.018C65.9939 18.954 65.8079 19.74 65.4359 20.376C65.0759 21.012 64.5299 21.492 63.7979 21.816C63.0659 22.152 62.1599 22.32 61.0799 22.32C60.3839 22.32 59.7359 22.278 59.1359 22.194C58.5479 22.11 57.9719 21.96 57.4079 21.744V19.602C57.8159 19.77 58.2239 19.908 58.6319 20.016C59.0519 20.136 59.4779 20.22 59.9099 20.268C60.3539 20.328 60.7979 20.358 61.2419 20.358C61.9379 20.358 62.4539 20.172 62.7899 19.8C63.1379 19.428 63.3119 18.87 63.3119 18.126V17.928C63.3119 17.724 63.3179 17.514 63.3299 17.298C63.3539 17.082 63.3719 16.89 63.3839 16.722H63.3119C62.9759 17.238 62.5739 17.61 62.1059 17.838C61.6379 18.066 61.1099 18.18 60.5219 18.18C59.3579 18.18 58.4459 17.736 57.7859 16.848C57.1379 15.948 56.8139 14.7 56.8139 13.104C56.8139 12.024 56.9639 11.106 57.2639 10.35C57.5639 9.582 57.9959 9 58.5599 8.604C59.1359 8.196 59.8139 7.992 60.5939 7.992ZM61.4399 10.17C61.0199 10.17 60.6659 10.284 60.3779 10.512C60.1019 10.728 59.8919 11.058 59.7479 11.502C59.6159 11.934 59.5499 12.48 59.5499 13.14C59.5499 14.124 59.7059 14.862 60.0179 15.354C60.3299 15.834 60.8159 16.074 61.4759 16.074C61.8239 16.074 62.1239 16.032 62.3759 15.948C62.6279 15.852 62.8319 15.702 62.9879 15.498C63.1559 15.282 63.2819 15.006 63.3659 14.67C63.4499 14.334 63.4919 13.926 63.4919 13.446V13.122C63.4919 12.414 63.4199 11.844 63.2759 11.412C63.1319 10.98 62.9099 10.668 62.6099 10.476C62.3099 10.272 61.9199 10.17 61.4399 10.17Z" fill="#FF5D5D"/>
</svg>
