<svg id="Logos" xmlns="http://www.w3.org/2000/svg" viewBox="0 0 256 256"><defs><style>.cls-1{fill:#6b41cb;}.cls-2{fill:#fff;fill-rule:evenodd;}</style></defs><circle class="cls-1" cx="128" cy="128" r="128"/><path class="cls-2" d="M102.19,180C66.31,163.85,38.26,162.66,22,175.68c13.27-19.87,28.81-29.05,46.15-27.85.59-.12-7.94-16.61-22.83-15.8a18,18,0,0,1,9.85-6.64c.57-5.6,3.06-9.29,7.33-11.21a14.86,14.86,0,0,1,15.94,2.55A40.41,40.41,0,0,1,86.21,127C83.43,93.36,112.42,57.69,172.8,20.29h0c-1,1.23-79.07,92.31-41.62,132.52A52.22,52.22,0,0,1,116.77,138c15.57,32.66,74,48,113.28,55.25-67.68,1.71-115.83-7.56-144.38-28.44A83.64,83.64,0,0,1,72,152.46C75.43,159.82,89.34,173.21,102.19,180Z"/><circle class="cls-1" cx="61.7" cy="121.72" r="1.17"/></svg>